<svg width="203" height="159" viewBox="0 0 203 159" fill="none" xmlns="http://www.w3.org/2000/svg">
<g opacity="0.2">
<mask id="path-1-outside-1_1294_12924" maskUnits="userSpaceOnUse" x="0" y="0" width="203" height="159" fill="black">
<rect fill="white" width="203" height="159"/>
<path fill-rule="evenodd" clip-rule="evenodd" d="M9 149.578C9.04254 149.578 9.08507 149.578 9.1276 149.578C37.017 149.578 66.0766 127.156 66.0766 79.3865C66.0766 31.6173 37.017 9 9.1276 9C9.08507 9 9.04254 9.00005 9 9.00016V38.8317C9.04247 38.8315 9.08501 38.8314 9.1276 38.8314C27.8506 38.8314 35.0667 60.0838 35.0667 79.3865C35.0667 98.6892 27.8506 119.552 9.1276 119.552C9.08501 119.552 9.04247 119.552 9 119.551V149.578ZM179.325 95.1796H190.637C192.392 95.1796 193.563 96.3495 193.563 98.1043V118.187C193.563 119.942 192.392 121.111 190.637 121.111H179.325V144.119C179.325 145.873 178.155 147.043 176.4 147.043H150.071C148.316 147.043 147.145 145.873 147.145 144.119V121.111H97.2175C95.4622 121.111 94.292 119.942 94.292 118.187V97.1294C94.292 95.7645 94.292 94.9846 95.2672 93.4248L145.975 12.5096C146.755 11.1447 147.925 10.5598 149.486 10.5598H176.4C178.155 10.5598 179.325 11.7297 179.325 13.4844V95.1796ZM126.472 95.1796H147.145V60.2788L126.472 95.1796Z"/>
</mask>
<path d="M9 149.578H0.0600004V158.495L8.97755 158.518L9 149.578ZM9 9.00016L8.97758 0.0601883L0.0600004 0.0825548V9.00016H9ZM9 38.8317H0.0600004V47.818L9.04617 47.7716L9 38.8317ZM9 119.551L9.04496 110.611L0.0600004 110.566V119.551H9ZM179.325 95.1796H170.385V104.12H179.325V95.1796ZM179.325 121.111V112.171H170.385V121.111H179.325ZM147.145 121.111H156.085V112.171H147.145V121.111ZM95.2672 93.4248L87.6918 88.6775L87.6867 88.6857L95.2672 93.4248ZM145.975 12.5096L153.551 17.2569L153.647 17.1033L153.737 16.946L145.975 12.5096ZM147.145 95.1796V104.12H156.085V95.1796H147.145ZM126.472 95.1796L118.78 90.6234L110.786 104.12H126.472V95.1796ZM147.145 60.2788H156.085V27.6446L139.454 55.7226L147.145 60.2788ZM9.1276 140.638C9.09145 140.638 9.05647 140.638 9.02245 140.638L8.97755 158.518C9.0286 158.518 9.07869 158.518 9.1276 158.518V140.638ZM57.1366 79.3865C57.1366 101.415 50.4724 116.661 41.5098 126.312C32.5054 136.008 20.6688 140.638 9.1276 140.638V158.518C25.4758 158.518 42.1137 151.937 54.6114 138.479C67.151 124.977 75.0166 105.127 75.0166 79.3865H57.1366ZM9.1276 17.94C20.6455 17.94 32.4821 22.6015 41.4971 32.3497C50.4714 42.0539 57.1366 57.3566 57.1366 79.3865H75.0166C75.0166 53.6472 67.152 33.7566 54.6242 20.2099C42.137 6.70714 25.4991 0.0600004 9.1276 0.0600004V17.94ZM9.02242 17.9401C9.05749 17.94 9.09255 17.94 9.1276 17.94V0.0600004C9.0776 0.0600004 9.02759 0.0600634 8.97758 0.0601883L9.02242 17.9401ZM0.0600004 9.00016V38.8317H17.94V9.00016H0.0600004ZM9.1276 29.8914C9.06953 29.8914 9.01161 29.8916 8.95383 29.8919L9.04617 47.7716C9.07334 47.7715 9.10049 47.7714 9.1276 47.7714V29.8914ZM44.0067 79.3865C44.0067 68.836 42.0669 57.0969 36.9963 47.6444C31.7585 37.8801 22.6599 29.8914 9.1276 29.8914V47.7714C14.3183 47.7714 18.1892 50.4089 21.2402 56.0965C24.4584 62.0959 26.1267 70.6344 26.1267 79.3865H44.0067ZM9.1276 128.492C22.5814 128.492 31.6972 120.688 36.9738 110.975C42.0669 101.601 44.0067 89.9373 44.0067 79.3865H26.1267C26.1267 88.1384 24.4584 96.5577 21.2627 102.44C18.2505 107.984 14.3968 110.612 9.1276 110.612V128.492ZM8.95504 128.491C9.01254 128.492 9.07006 128.492 9.1276 128.492V110.612C9.09995 110.612 9.07241 110.612 9.04496 110.611L8.95504 128.491ZM0.0600004 119.551V149.578H17.94V119.551H0.0600004ZM190.637 86.2396H179.325V104.12H190.637V86.2396ZM202.503 98.1043C202.503 95.1945 201.493 92.0753 199.079 89.6614C196.664 87.2478 193.546 86.2396 190.637 86.2396V104.12C189.484 104.12 187.828 103.696 186.438 102.306C185.047 100.916 184.623 99.2593 184.623 98.1043H202.503ZM202.503 118.187V98.1043H184.623V118.187H202.503ZM190.637 130.051C193.546 130.051 196.664 129.043 199.079 126.63C201.493 124.216 202.503 121.097 202.503 118.187H184.623C184.623 117.032 185.047 115.375 186.438 113.985C187.828 112.595 189.484 112.171 190.637 112.171V130.051ZM179.325 130.051H190.637V112.171H179.325V130.051ZM188.265 144.119V121.111H170.385V144.119H188.265ZM176.4 155.983C179.308 155.983 182.427 154.975 184.842 152.561C187.256 150.148 188.265 147.028 188.265 144.119H170.385C170.385 142.964 170.81 141.307 172.2 139.917C173.591 138.527 175.247 138.103 176.4 138.103V155.983ZM150.071 155.983H176.4V138.103H150.071V155.983ZM138.205 144.119C138.205 147.028 139.215 150.148 141.629 152.561C144.044 154.975 147.162 155.983 150.071 155.983V138.103C151.224 138.103 152.88 138.527 154.271 139.917C155.661 141.307 156.085 142.964 156.085 144.119H138.205ZM138.205 121.111V144.119H156.085V121.111H138.205ZM97.2175 130.051H147.145V112.171H97.2175V130.051ZM85.352 118.187C85.352 121.097 86.3613 124.216 88.7758 126.63C91.1902 129.043 94.309 130.051 97.2175 130.051V112.171C98.3707 112.171 100.027 112.595 101.417 113.985C102.808 115.375 103.232 117.032 103.232 118.187H85.352ZM85.352 97.1294V118.187H103.232V97.1294H85.352ZM87.6867 88.6857C86.8295 90.0568 86.0796 91.6039 85.6781 93.4506C85.3169 95.1113 85.352 96.6263 85.352 97.1294H103.232C103.232 96.9472 103.232 96.8423 103.233 96.7522C103.234 96.6688 103.236 96.6486 103.235 96.6641C103.232 96.711 103.218 96.9365 103.15 97.2498C103.079 97.5751 102.982 97.8504 102.895 98.0498C102.818 98.2264 102.777 98.2763 102.848 98.1639L87.6867 88.6857ZM138.4 7.76222L87.6918 88.6775L102.843 98.1722L153.551 17.2569L138.4 7.76222ZM149.486 1.6198C147.59 1.6198 145.365 1.97879 143.181 3.16151C140.946 4.37172 139.319 6.13965 138.214 8.07315L153.737 16.946C153.412 17.5147 152.76 18.3077 151.695 18.8842C150.681 19.4333 149.821 19.4998 149.486 19.4998V1.6198ZM176.4 1.6198H149.486V19.4998H176.4V1.6198ZM188.265 13.4844C188.265 10.5747 187.256 7.45554 184.842 5.04165C182.427 2.62799 179.308 1.6198 176.4 1.6198V19.4998C175.247 19.4998 173.591 19.0765 172.2 17.6865C170.81 16.2963 170.385 14.6394 170.385 13.4844H188.265ZM188.265 95.1796V13.4844H170.385V95.1796H188.265ZM147.145 86.2396H126.472V104.12H147.145V86.2396ZM138.205 60.2788V95.1796H156.085V60.2788H138.205ZM134.164 99.7358L154.837 64.835L139.454 55.7226L118.78 90.6234L134.164 99.7358Z" fill="#ECB236" mask="url(#path-1-outside-1_1294_12924)"/>
</g>
</svg>
