<svg width="202" height="159" viewBox="0 0 202 159" fill="none" xmlns="http://www.w3.org/2000/svg">
<g opacity="0.2">
<mask id="path-1-outside-1_1294_12925" maskUnits="userSpaceOnUse" x="0" y="0" width="202" height="159" fill="black">
<rect fill="white" width="202" height="159"/>
<path fill-rule="evenodd" clip-rule="evenodd" d="M192.988 9C165.331 9.06933 136.166 31.6904 136.166 79.3864C136.166 127.082 165.331 149.509 192.988 149.578V119.551C174.359 119.457 167.176 98.6451 167.176 79.3864C167.176 60.1276 174.359 38.9279 192.988 38.8316V9ZM105.345 95.1795H94.0334V13.4843C94.0334 11.7295 92.8632 10.5596 91.108 10.5596H64.1937C62.6335 10.5596 61.4633 11.1446 60.6832 12.5094L9.97515 93.4247C9 94.9845 9 95.7644 9 97.1292V118.187C9 119.941 10.1702 121.111 11.9255 121.111H61.8533V144.119C61.8533 145.873 63.0235 147.043 64.7788 147.043H91.108C92.8632 147.043 94.0334 145.873 94.0334 144.119V121.111H105.345C107.1 121.111 108.271 119.941 108.271 118.187V98.1041C108.271 96.3493 107.1 95.1795 105.345 95.1795ZM61.8533 95.1795H41.1801L61.8533 60.2787V95.1795Z"/>
</mask>
<path d="M192.988 9H201.928V0.0375614L192.965 0.0600281L192.988 9ZM192.988 149.578L192.965 158.518L201.928 158.54V149.578H192.988ZM192.988 119.551H201.928V110.656L193.033 110.611L192.988 119.551ZM192.988 38.8316L193.034 47.7715L201.928 47.7255V38.8316H192.988ZM94.0334 95.1795H85.0934V104.119H94.0334V95.1795ZM60.6832 12.5094L68.2585 17.2567L68.3548 17.1032L68.4447 16.9458L60.6832 12.5094ZM9.97515 93.4247L2.39977 88.6773L2.39465 88.6855L9.97515 93.4247ZM61.8533 121.111H70.7933V112.171H61.8533V121.111ZM94.0334 121.111V112.171H85.0934V121.111H94.0334ZM41.1801 95.1795L33.4882 90.6232L25.4938 104.119H41.1801V95.1795ZM61.8533 95.1795V104.119H70.7933V95.1795H61.8533ZM61.8533 60.2787H70.7933V27.6444L54.1615 55.7224L61.8533 60.2787ZM145.106 79.3864C145.106 57.4066 151.79 42.1157 160.77 32.4021C169.797 22.6382 181.615 17.9685 193.01 17.94L192.965 0.0600281C176.703 0.100793 160.111 6.7763 147.641 20.2643C135.125 33.8025 127.226 53.6701 127.226 79.3864H145.106ZM193.01 140.638C181.592 140.609 169.774 135.971 160.757 126.26C151.789 116.599 145.106 101.365 145.106 79.3864H127.226C127.226 105.104 135.126 124.931 147.654 138.425C160.134 151.868 176.727 158.477 192.965 158.518L193.01 140.638ZM201.928 149.578V119.551H184.048V149.578H201.928ZM158.236 79.3864C158.236 89.9145 160.167 101.547 165.234 110.91C170.478 120.602 179.541 128.423 192.942 128.491L193.033 110.611C187.806 110.585 183.963 107.953 180.959 102.401C177.776 96.5192 176.116 88.117 176.116 79.3864H158.236ZM192.941 29.8917C179.462 29.9614 170.417 37.967 165.211 47.7101C160.167 57.15 158.236 68.8585 158.236 79.3864H176.116C176.116 70.6555 177.776 62.1347 180.981 56.136C184.024 50.4405 187.885 47.7981 193.034 47.7715L192.941 29.8917ZM201.928 38.8316V9H184.048V38.8316H201.928ZM94.0334 104.119H105.345V86.2395H94.0334V104.119ZM85.0934 13.4843V95.1795H102.973V13.4843H85.0934ZM91.108 19.4996C89.9547 19.4996 88.2987 19.0764 86.9083 17.6863C85.5176 16.2961 85.0934 14.6392 85.0934 13.4843H102.973C102.973 10.5746 101.964 7.45542 99.5496 5.04152C97.1352 2.62783 94.0165 1.61964 91.108 1.61964V19.4996ZM64.1937 19.4996H91.108V1.61964H64.1937V19.4996ZM68.4447 16.9458C68.1197 17.5145 67.4676 18.3076 66.4029 18.8841C65.389 19.4331 64.5288 19.4996 64.1937 19.4996V1.61964C62.2984 1.61964 60.0729 1.97863 57.8888 3.16135C55.654 4.37154 54.0268 6.13947 52.9216 8.07299L68.4447 16.9458ZM17.5505 98.172L68.2585 17.2567L53.1078 7.76207L2.39978 88.6773L17.5505 98.172ZM17.94 97.1292C17.94 96.947 17.9401 96.8421 17.9412 96.752C17.9423 96.6686 17.9437 96.6484 17.9429 96.6639C17.9404 96.7108 17.9259 96.9363 17.8577 97.2497C17.787 97.5749 17.6904 97.8503 17.6033 98.0496C17.5261 98.2262 17.4854 98.2762 17.5557 98.1638L2.39465 88.6855C1.53746 90.0566 0.787619 91.6037 0.386047 93.4504C0.0249186 95.1112 0.0600004 96.6261 0.0600004 97.1292H17.94ZM17.94 118.187V97.1292H0.0600004V118.187H17.94ZM11.9255 112.171C13.0787 112.171 14.7347 112.595 16.1252 113.985C17.5158 115.375 17.94 117.032 17.94 118.187H0.0600004C0.0600004 121.096 1.06927 124.216 3.48384 126.629C5.8982 129.043 9.01697 130.051 11.9255 130.051V112.171ZM61.8533 112.171H11.9255V130.051H61.8533V112.171ZM70.7933 144.119V121.111H52.9133V144.119H70.7933ZM64.7788 138.103C65.9321 138.103 67.5881 138.526 68.9785 139.917C70.3691 141.307 70.7933 142.964 70.7933 144.119H52.9133C52.9133 147.028 53.9226 150.147 56.3372 152.561C58.7515 154.975 61.8703 155.983 64.7788 155.983V138.103ZM91.108 138.103H64.7788V155.983H91.108V138.103ZM85.0934 144.119C85.0934 142.964 85.5176 141.307 86.9082 139.917C88.2987 138.526 89.9547 138.103 91.108 138.103V155.983C94.0165 155.983 97.1352 154.975 99.5496 152.561C101.964 150.147 102.973 147.028 102.973 144.119H85.0934ZM85.0934 121.111V144.119H102.973V121.111H85.0934ZM105.345 112.171H94.0334V130.051H105.345V112.171ZM99.3307 118.187C99.3307 117.032 99.7548 115.375 101.146 113.985C102.536 112.595 104.192 112.171 105.345 112.171V130.051C108.254 130.051 111.372 129.043 113.787 126.629C116.201 124.216 117.211 121.096 117.211 118.187H99.3307ZM99.3307 98.1041V118.187H117.211V98.1041H99.3307ZM105.345 104.119C104.192 104.119 102.536 103.696 101.146 102.306C99.7549 100.916 99.3307 99.2591 99.3307 98.1041H117.211C117.211 95.1943 116.201 92.0752 113.787 89.6613C111.372 87.2476 108.254 86.2395 105.345 86.2395V104.119ZM41.1801 104.119H61.8533V86.2395H41.1801V104.119ZM54.1615 55.7224L33.4882 90.6232L48.8719 99.7357L69.5452 64.8349L54.1615 55.7224ZM70.7933 95.1795V60.2787H52.9133V95.1795H70.7933Z" fill="#ECB236" mask="url(#path-1-outside-1_1294_12925)"/>
</g>
</svg>
