<?xml version="1.0" encoding="utf-8"?>
<!-- Generator: Adobe Illustrator 26.0.2, SVG Export Plug-In . SVG Version: 6.00 Build 0)  -->
<svg version="1.1" id="Calque_1" xmlns="http://www.w3.org/2000/svg" xmlns:xlink="http://www.w3.org/1999/xlink" x="0px" y="0px"
	 viewBox="0 0 331 323" style="enable-background:new 0 0 331 323;" xml:space="preserve">
<style type="text/css">
	.st0{fill:#FFFFFF;}
	.st1{fill:#25252F;}
</style>
<g>
	<path class="st0" d="M265.2,6.2c-29.8,0.9-54.3,24.9-55.9,54.7c-0.5,9.7,1.5,19.4,5.7,28.1c1.2,2.5,1.2,5.4,0,7.9
		c-1.9,3.9-4.4,7.4-7.4,10.5c-3.2,3.3-0.5,8.8,4.1,8.1c5.6-0.9,11-2.2,16.4-3.9c2.6-0.9,5.5-0.5,7.9,1c9.5,6.1,20.5,9.3,31.8,9.1
		c32.1-0.3,57.9-27.3,57.1-59.4c-0.9-31.9-27.5-57-59.4-56.1C265.3,6.2,265.3,6.2,265.2,6.2z"/>
</g>
<path class="st1" d="M239.5,67.8c-0.1-0.2-0.4-0.2-0.6-0.1c-1,0.9-2.2,1.4-3.8,1.4c-2.8,0-4.9-2.2-4.9-5.1c0-2.9,2.1-5.1,4.9-5.1
	c1.6,0,2.8,0.6,3.8,1.4c0.2,0.2,0.4,0.2,0.6,0l2.3-2.5c0.1-0.2,0.2-0.4,0-0.6c-1.6-1.7-4-2.7-6.6-2.7c-5.3,0-9.6,4.2-9.6,9.5
	c0,5.3,4.3,9.5,9.6,9.5c2.6,0,5-1,6.6-2.7c0.2-0.2,0.1-0.4,0-0.6L239.5,67.8z"/>
<path class="st1" d="M256.1,69.3h-5.4V55.1c0-0.2-0.2-0.4-0.4-0.4h-3.7c-0.2,0-0.4,0.2-0.4,0.4v17.7c0,0.2,0.2,0.4,0.4,0.4h9.6
	c0.2,0,0.4-0.2,0.4-0.4v-3.2C256.5,69.4,256.4,69.3,256.1,69.3z"/>
<path class="st1" d="M260.9,55.1v17.7c0,0.2,0.2,0.4,0.4,0.4h3.7c0.2,0,0.4-0.2,0.4-0.4V55.1c0-0.2-0.2-0.4-0.4-0.4h-3.7
	C261,54.7,260.9,54.9,260.9,55.1z"/>
<path class="st1" d="M283.7,67.8c-0.1-0.2-0.4-0.2-0.6-0.1c-1,0.9-2.2,1.4-3.8,1.4c-2.8,0-4.9-2.2-4.9-5.1c0-2.9,2.1-5.1,4.9-5.1
	c1.6,0,2.8,0.6,3.8,1.4c0.2,0.2,0.4,0.2,0.6,0l2.3-2.5c0.1-0.2,0.2-0.4,0-0.6c-1.6-1.7-4-2.7-6.6-2.7c-5.3,0-9.6,4.2-9.6,9.5
	c0,5.3,4.3,9.5,9.6,9.5c2.6,0,5-1,6.6-2.7c0.2-0.2,0.1-0.4,0-0.6L283.7,67.8z"/>
<path class="st1" d="M306.1,72.8l-6.9-10.1l6.4-7.5c0.2-0.2,0.1-0.5-0.2-0.5h-4.6c-0.2,0-0.3,0.1-0.5,0.2l-5.4,6.8v-6.6
	c0-0.2-0.2-0.4-0.4-0.4h-3.7c-0.2,0-0.4,0.2-0.4,0.4v17.7c0,0.2,0.2,0.4,0.4,0.4h3.7c0.2,0,0.4-0.2,0.4-0.4v-5.1l1.3-1.5L301,73
	c0.1,0.2,0.3,0.2,0.5,0.2h4.4C306.2,73.2,306.3,73,306.1,72.8z"/>
</svg>
