<svg width="180" height="198" viewBox="0 0 180 198" fill="none" xmlns="http://www.w3.org/2000/svg">
<path fill-rule="evenodd" clip-rule="evenodd" d="M73.0636 10.0751C73.5066 9.99267 73.9427 10.0631 74.3175 10.2492V13.834C74.1562 13.9138 73.9812 13.973 73.7955 14.0076C71.5786 14.4202 69.3919 14.9183 67.2388 15.4983C66.1723 15.7856 65.0747 15.1539 64.7874 14.0873C64.5001 13.0208 65.1318 11.9233 66.1984 11.6359C68.4529 11.0286 70.7425 10.5071 73.0636 10.0751ZM111.858 15.4982C110.335 15.088 108.796 14.7187 107.24 14.3917V10.3083C109.149 10.6908 111.036 11.1341 112.899 11.6359C113.965 11.9232 114.597 13.0208 114.31 14.0873C114.023 15.1539 112.925 15.7856 111.858 15.4982ZM74.3175 185.969C73.9427 186.155 73.5066 186.226 73.0636 186.143C70.7426 185.711 68.4529 185.19 66.1984 184.583C65.1319 184.295 64.5001 183.198 64.7875 182.131C65.0748 181.065 66.1723 180.433 67.2388 180.72C69.3919 181.3 71.5786 181.798 73.7955 182.211C73.9812 182.245 74.1562 182.305 74.3175 182.385V185.969ZM107.24 185.91C109.149 185.528 111.036 185.084 112.899 184.583C113.965 184.295 114.597 183.198 114.31 182.131C114.023 181.065 112.925 180.433 111.859 180.72C110.336 181.131 108.796 181.5 107.24 181.827V185.91ZM56.5177 179.238C56.0775 180.251 54.8993 180.715 53.8863 180.275C51.7267 179.336 49.6114 178.315 47.5444 177.215C46.5693 176.696 46.1994 175.485 46.7182 174.51C47.2371 173.535 48.4482 173.165 49.4233 173.684C51.3977 174.734 53.4181 175.71 55.4807 176.606C56.4937 177.046 56.958 178.225 56.5177 179.238ZM122.58 179.238C122.139 178.224 122.604 177.046 123.617 176.606C125.679 175.71 127.7 174.734 129.674 173.684C130.649 173.165 131.86 173.535 132.379 174.51C132.898 175.485 132.528 176.696 131.553 177.215C129.486 178.315 127.371 179.336 125.211 180.275C124.198 180.715 123.02 180.251 122.58 179.238ZM39.3037 169.841C38.6488 170.731 37.3969 170.921 36.5074 170.266C34.6154 168.873 32.7801 167.407 31.0059 165.873C30.1703 165.151 30.0787 163.888 30.8011 163.052C31.5236 162.217 32.7866 162.125 33.6221 162.848C35.3176 164.314 37.0712 165.714 38.879 167.045C39.7685 167.7 39.9587 168.952 39.3037 169.841ZM139.794 169.841C139.139 168.952 139.329 167.7 140.218 167.045C142.026 165.714 143.78 164.314 145.475 162.847C146.311 162.125 147.574 162.217 148.296 163.052C149.019 163.888 148.927 165.151 148.091 165.873C146.317 167.407 144.482 168.873 142.59 170.266C141.7 170.921 140.449 170.731 139.794 169.841ZM24.6057 156.857C23.7702 157.579 22.5072 157.488 21.7847 156.652C20.2505 154.878 18.7848 153.043 17.3918 151.151C16.7368 150.261 16.927 149.009 17.8165 148.354C18.7059 147.699 19.9579 147.889 20.6128 148.779C21.9439 150.587 23.3444 152.34 24.8104 154.036C25.5329 154.871 25.4412 156.134 24.6057 156.857ZM154.492 156.857C153.656 156.134 153.564 154.871 154.287 154.036C155.753 152.34 157.153 150.587 158.485 148.779C159.139 147.889 160.391 147.699 161.281 148.354C162.17 149.009 162.361 150.261 161.706 151.151C160.313 153.043 158.847 154.878 157.313 156.652C156.59 157.488 155.327 157.579 154.492 156.857ZM13.148 140.94C12.1729 141.459 10.9618 141.089 10.4429 140.114C9.34313 138.047 8.32193 135.931 7.38335 133.772C6.94306 132.759 7.40736 131.58 8.4204 131.14C9.43343 130.7 10.6116 131.164 11.0518 132.177C11.9483 134.24 12.9236 136.26 13.9742 138.235C14.493 139.21 14.1231 140.421 13.148 140.94ZM165.949 140.94C164.974 140.421 164.604 139.21 165.123 138.235C166.174 136.26 167.149 134.24 168.045 132.177C168.486 131.164 169.664 130.7 170.677 131.14C171.69 131.58 172.154 132.759 171.714 133.772C170.775 135.931 169.754 138.047 168.654 140.114C168.136 141.089 166.924 141.459 165.949 140.94ZM5.52672 122.87C4.46018 123.158 3.36266 122.526 3.07535 121.46C2.46802 119.205 1.9465 116.915 1.51454 114.594C1.31242 113.508 2.0289 112.464 3.11482 112.262C4.20075 112.06 5.2449 112.777 5.44701 113.862C5.85959 116.079 6.35767 118.266 6.93765 120.419C7.22496 121.486 6.59326 122.583 5.52672 122.87ZM173.571 122.87C172.504 122.583 171.872 121.486 172.16 120.419C172.74 118.266 173.238 116.079 173.65 113.862C173.852 112.777 174.897 112.06 175.983 112.262C177.068 112.464 177.785 113.508 177.583 114.594C177.151 116.915 176.629 119.205 176.022 121.46C175.735 122.526 174.637 123.158 173.571 122.87ZM2.14395 103.554C1.04022 103.597 0.110825 102.737 0.0680848 101.633C0.0228272 100.464 3.75003e-08 99.2892 0 98.1093C-3.75148e-08 96.9293 0.0228271 95.7545 0.0680846 94.5854C0.110824 93.4817 1.04022 92.6216 2.14395 92.6643C3.2477 92.707 4.10782 93.6364 4.06509 94.7402C4.02184 95.8577 4 96.9809 4 98.1093C4 99.2376 4.02184 100.361 4.06509 101.478C4.10782 102.582 3.2477 103.512 2.14395 103.554ZM176.953 103.554C175.85 103.511 174.989 102.582 175.032 101.478C175.075 100.361 175.097 99.2376 175.097 98.1093C175.097 96.9809 175.075 95.8577 175.032 94.7402C174.989 93.6364 175.85 92.707 176.953 92.6643C178.057 92.6216 178.986 93.4817 179.029 94.5854C179.074 95.7545 179.097 96.9293 179.097 98.1093C179.097 99.2892 179.074 100.464 179.029 101.633C178.986 102.737 178.057 103.597 176.953 103.554ZM3.11482 83.9564C2.0289 83.7543 1.31242 82.7101 1.51453 81.6242C1.9465 79.3032 2.468 77.0135 3.07533 74.759C3.36264 73.6924 4.46016 73.0607 5.52672 73.3481C6.59326 73.6354 7.22496 74.7329 6.93765 75.7994C6.35767 77.9525 5.85959 80.1392 5.44701 82.3561C5.2449 83.442 4.20074 84.1585 3.11482 83.9564ZM175.982 83.9563C174.897 84.1584 173.852 83.442 173.65 82.3561C173.238 80.1392 172.74 77.9525 172.16 75.7994C171.872 74.7329 172.504 73.6353 173.571 73.348C174.637 73.0607 175.735 73.6924 176.022 74.759C176.629 77.0135 177.151 79.3031 177.583 81.6242C177.785 82.7101 177.068 83.7542 175.982 83.9563ZM8.42038 65.0783C7.40735 64.6381 6.94305 63.4599 7.38333 62.4469C8.32193 60.2873 9.34312 58.172 10.4429 56.105C10.9617 55.1299 12.1729 54.76 13.148 55.2788C14.1231 55.7977 14.493 57.0087 13.9742 57.9839C12.9236 59.9583 11.9483 61.9787 11.0518 64.0413C10.6116 65.0543 9.43341 65.5186 8.42038 65.0783ZM170.677 65.0783C169.664 65.5186 168.486 65.0543 168.045 64.0413C167.149 61.9787 166.174 59.9583 165.123 57.9839C164.604 57.0087 164.974 55.7976 165.949 55.2788C166.924 54.76 168.136 55.1299 168.654 56.105C169.754 58.172 170.775 60.2873 171.714 62.4469C172.154 63.4599 171.69 64.638 170.677 65.0783ZM17.8165 47.8643C16.927 47.2094 16.7368 45.9575 17.3917 45.068C18.7848 43.176 20.2505 41.3407 21.7847 39.5665C22.5071 38.7309 23.7701 38.6393 24.6057 39.3617C25.4412 40.0842 25.5329 41.3472 24.8104 42.1827C23.3444 43.8782 21.9439 45.6318 20.6128 47.4396C19.9579 48.3291 18.7059 48.5192 17.8165 47.8643ZM161.281 47.8643C160.391 48.5192 159.139 48.3291 158.484 47.4396C157.153 45.6318 155.753 43.8782 154.287 42.1827C153.564 41.3472 153.656 40.0842 154.492 39.3617C155.327 38.6392 156.59 38.7309 157.313 39.5664C158.847 41.3407 160.312 43.1759 161.706 45.068C162.36 45.9574 162.17 47.2094 161.281 47.8643ZM30.8011 33.1663C30.0786 32.3308 30.1703 31.0678 31.0058 30.3453C32.7801 28.8111 34.6153 27.3454 36.5074 25.9524C37.3968 25.2974 38.6488 25.4876 39.3037 26.3771C39.9586 27.2665 39.7685 28.5185 38.879 29.1734C37.0712 30.5045 35.3176 31.905 33.6221 33.371C32.7866 34.0935 31.5236 34.0018 30.8011 33.1663ZM148.296 33.1663C147.574 34.0018 146.311 34.0935 145.475 33.371C143.78 31.905 142.026 30.5045 140.218 29.1734C139.329 28.5185 139.139 27.2665 139.794 26.377C140.448 25.4876 141.7 25.2974 142.59 25.9523C144.482 27.3454 146.317 28.8111 148.091 30.3453C148.927 31.0677 149.019 32.3307 148.296 33.1663ZM46.7182 21.7086C46.1994 20.7335 46.5693 19.5224 47.5444 19.0035C49.6114 17.9037 51.7267 16.8825 53.8863 15.9439C54.8993 15.5037 56.0774 15.968 56.5177 16.981C56.958 17.994 56.4937 19.1722 55.4807 19.6124C53.4181 20.5089 51.3977 21.4842 49.4233 22.5348C48.4481 23.0536 47.237 22.6837 46.7182 21.7086ZM132.379 21.7086C131.86 22.6837 130.649 23.0536 129.674 22.5348C127.7 21.4842 125.679 20.5089 123.617 19.6124C122.604 19.1722 122.139 17.994 122.58 16.981C123.02 15.9679 124.198 15.5037 125.211 15.9439C127.371 16.8825 129.486 17.9037 131.553 19.0035C132.528 19.5223 132.898 20.7334 132.379 21.7086Z" fill="#1F367E"/>
<path d="M94 195.051L85 186.051L94 177.051" stroke="#1F367E" stroke-width="4" stroke-linecap="round" stroke-linejoin="round"/>
<path d="M94 20.041L85 11.041L94 2.04102" stroke="#1F367E" stroke-width="4" stroke-linecap="round" stroke-linejoin="round"/>
</svg>
