<svg width="26" height="26" viewBox="0 0 26 26" fill="none" xmlns="http://www.w3.org/2000/svg">
<path d="M10.1574 9.90758H9.90738V10.1576V11.9695V12.2195H10.1574H11.0633H11.7193V17.1552H11.0633H10.1574H9.90738V17.4052V19.2171V19.4671H10.1574H11.0633H12.8753H14.6872H15.5931H15.8431V19.2171V17.4052V17.1552H15.5931H14.6872H14.0312V11.0635C14.0312 10.4251 13.5137 9.90758 12.8753 9.90758H11.0633H10.1574ZM12.875 0.625C6.10953 0.625 0.625 6.1095 0.625 12.875C0.625 19.6404 6.10953 25.125 12.875 25.125C19.6406 25.125 25.125 19.6404 25.125 12.875C25.125 6.1095 19.6406 0.625 12.875 0.625ZM2.84631 12.875C2.84631 7.3363 7.33633 2.84631 12.875 2.84631C18.4137 2.84631 22.9037 7.3363 22.9037 12.875C22.9037 18.4136 18.4137 22.9037 12.875 22.9037C7.33634 22.9037 2.84631 18.4136 2.84631 12.875ZM12.8751 9.04865C13.7636 9.04865 14.484 8.3283 14.484 7.43972C14.484 6.55112 13.7636 5.83079 12.8751 5.83079C11.9865 5.83079 11.2661 6.55112 11.2661 7.43972C11.2661 8.3283 11.9865 9.04865 12.8751 9.04865Z" fill="#ECB236" stroke="#ECB236" stroke-width="0.5"/>
</svg>
