<svg width="15" height="15" viewBox="0 0 15 15" fill="none" xmlns="http://www.w3.org/2000/svg">
<g clip-path="url(#clip0_1177_1970)">
<path fill-rule="evenodd" clip-rule="evenodd" d="M7.5 3C4.30786 3 1.65639 4.70638 0.0760002 7.23501C-0.0253338 7.39715 -0.0253334 7.60288 0.0760014 7.76501C1.65639 10.2936 4.30786 12 7.5 12C10.6921 12 13.3436 10.2936 14.924 7.76501C15.0253 7.60288 15.0253 7.39715 14.924 7.23501C13.3436 4.70638 10.6921 3 7.5 3ZM7.5 9.5C8.60457 9.5 9.5 8.60457 9.5 7.5C9.5 6.39543 8.60457 5.5 7.5 5.5C6.39543 5.5 5.5 6.39543 5.5 7.5C5.5 8.60457 6.39543 9.5 7.5 9.5Z" fill="#FEFEFF"/>
</g>
<defs>
<clipPath id="clip0_1177_1970">
<rect width="15" height="15" fill="white"/>
</clipPath>
</defs>
</svg>
