<?xml version="1.0" encoding="utf-8"?>
<!-- Generator: Adobe Illustrator 26.0.2, SVG Export Plug-In . SVG Version: 6.00 Build 0)  -->
<svg version="1.1" baseProfile="tiny" id="Calque_1"
	 xmlns="http://www.w3.org/2000/svg" xmlns:xlink="http://www.w3.org/1999/xlink" x="0px" y="0px" viewBox="0 0 306.9 306.9"
	 overflow="visible" xml:space="preserve">
<g>
	<g>
		<path fill="#FFFFFF" d="M209.7,191.5c-37.4,0-59.8-15.3-61.9-16.8c-2.6-1.7-34.5-22.5-23.4-41.6c4.9-8.5,14.6-10.5,21.3-10.9
			c-0.9-6.6-1.2-17.5,4.4-25.5c4-5.7,10.1-8.9,18.1-9.5c1.6-0.1,3.3-0.2,4.9-0.2c13.1,0,22.8,4.4,29.2,8.8c0.1-5.4,1.2-11.7,4.7-17
			c3.8-5.8,9.7-9.4,17.5-10.7c1.8-0.3,3.5-0.4,5.3-0.4c26.5,0,48.2,31.6,52.1,54.2c4.5,26.2-1.7,38.6-6.7,45.6
			c-8.2,11.5-22.7,19-43,22.2C224.6,190.9,217.1,191.5,209.7,191.5z"/>
		<path fill="#FFFFFF" d="M229.7,72.2c23.2,0,43.9,28.3,47.7,50.5c3.8,22.4,4.5,54.6-46,62.6c-7.7,1.2-14.9,1.7-21.6,1.7
			c-37.4,0-59.4-16.1-59.4-16.1s-31.3-19.6-22-35.6c4.4-7.7,14.7-8.7,19.8-8.7c1.8,0,3,0.1,3,0.1s-8.9-32.9,17.4-35.1
			c1.5-0.1,3.1-0.2,4.5-0.2c23.3,0,34.8,15.4,34.8,15.4s-7.7-30.2,17.3-34.3C226.6,72.3,228.2,72.2,229.7,72.2 M229.7,63.2
			c-2,0-4.1,0.2-6,0.5c-8.9,1.5-16,5.9-20.5,12.7c-2.5,3.8-3.9,8-4.7,12c-6.5-3.3-15-5.9-25.4-5.9c-1.7,0-3.5,0.1-5.3,0.2
			c-11.7,1-18.1,6.7-21.4,11.4c-4.2,6-6.1,13.8-5.7,23.2c0,0.3,0,0.6,0,0.9c-9.3,1.5-16.3,5.9-20.3,12.7c-2.4,4.2-4.6,11.1-1,20.1
			c1.9,4.7,5.2,9.5,9.9,14.4c6.7,7,14.4,12.1,15.9,13c3,2.1,26.4,17.6,64.5,17.6c7.6,0,15.3-0.6,23-1.8c21.5-3.4,37-11.5,46-24
			c11.5-16,9.8-35.6,7.5-49c-2.2-12.8-9.2-27-18.6-37.9C256.4,70.3,242.9,63.2,229.7,63.2L229.7,63.2z"/>
	</g>
</g>
</svg>
