<?xml version="1.0" encoding="utf-8"?>
<!-- Generator: Adobe Illustrator 26.0.2, SVG Export Plug-In . SVG Version: 6.00 Build 0)  -->
<svg version="1.1" baseProfile="basic" id="Calque_1"
	 xmlns="http://www.w3.org/2000/svg" xmlns:xlink="http://www.w3.org/1999/xlink" x="0px" y="0px" viewBox="0 0 306.9 306.9"
	 xml:space="preserve">
<g>
	<defs>
		<rect id="SVGID_00000126318859886244811450000006216953538681708966_" x="-402.5" y="-122.7" width="309.3" height="308.3"/>
	</defs>
	<clipPath id="SVGID_00000021837839000196549830000002850996143795343037_">
		<use xlink:href="#SVGID_00000126318859886244811450000006216953538681708966_"  overflow="visible"/>
	</clipPath>
	
		<g id="fVGA3Y.tif_00000039129711209895145440000006294983058611259838_" clip-path="url(#SVGID_00000021837839000196549830000002850996143795343037_)">
		
			<image overflow="visible" width="442" height="412" id="Layer_0_00000147193960149720311150000013910200782724072116_" xlink:href="EB541393BAC5CC55.png"  transform="matrix(1.4242 0 0 1.4242 -502.2307 -260.081)">
		</image>
	</g>
</g>
<g>
	<g>
		<path fill="#FCC648" d="M85.4,238.7c-3.2,0-5.9-2.3-6.4-5.4c-0.6-3.6,1.8-7,5.3-7.6l61.6-10.6c0,0,0,0,0,0c0.2,0,0.3,0.1,0.3,0.1
			c0.1,0.1,0.1,0.2,0.1,0.4c-0.4,2-0.4,4,0,6c0.3,2,1,3.9,2,5.7c0.1,0.2,0.1,0.3,0,0.4c0,0.1-0.1,0.2-0.4,0.3l-61.5,10.7
			C86.1,238.7,85.8,238.7,85.4,238.7L85.4,238.7z"/>
		<path fill="#FCC648" d="M146.1,216.6L146.1,216.6L146.1,216.6 M144.7,216.8c-0.2,1.7-0.1,3.4,0.2,5.1c0.3,1.7,0.8,3.3,1.5,4.8
			l-60.1,10.4c-0.3,0-0.6,0.1-0.9,0.1c-2.5,0-4.5-1.8-5-4.2c-0.2-1.3,0.1-2.7,0.8-3.8s1.9-1.8,3.3-2.1L144.7,216.8 M145.9,213.6
			c-0.1,0-0.2,0-0.3,0L84,224.2c-4.4,0.8-7.3,4.9-6.6,9.3c0.7,3.9,4.1,6.7,7.9,6.7c0.5,0,0.9,0,1.4-0.1l61.5-10.7
			c1.3-0.2,2.1-1.7,1.4-2.9c-0.9-1.6-1.5-3.3-1.9-5.2c-0.3-1.9-0.3-3.7,0-5.5C148,214.7,147.1,213.6,145.9,213.6L145.9,213.6z"/>
	</g>
	<g>
		<path fill="#E6E6E6" d="M149.4,227.2c-1.3-1.6-2.4-3.4-2.7-5.6c-0.3-1.9-0.2-4,0.5-6.3l8.9,1.6c-0.1,1.1,0.1,2.1,0.3,3.4
			c0.2,1.1,0.3,1.8,0.7,2.5L149.4,227.2z"/>
		<path fill="#E6E6E6" d="M148.3,217l6.3,1.2c0,0.8,0.2,1.6,0.3,2.4c0.1,0.6,0.2,1.1,0.3,1.6l-5.3,3.1c-0.8-1.2-1.4-2.5-1.7-3.9
			C147.9,220,147.9,218.6,148.3,217 M146.1,213.6c-0.9,2.6-1.5,5.4-1,8.2c0.5,2.9,2.1,5.2,3.8,7.3l10-5.7c-0.8-1.2-1-1.8-1.3-3.3
			c-0.3-1.6-0.4-2.9-0.1-4.3L146.1,213.6L146.1,213.6z"/>
	</g>
	<path fill="#25252F" d="M157.7,215.7l-1.6-0.3c-0.3,1.4-0.4,3-0.1,4.5c0.3,1.6,0.8,3,1.7,4.2l1.4-0.8
		C162.4,221.5,161.5,216.4,157.7,215.7z"/>
</g>
</svg>
