<?xml version="1.0" encoding="utf-8"?>
<!-- Generator: Adobe Illustrator 26.0.2, SVG Export Plug-In . SVG Version: 6.00 Build 0)  -->
<svg version="1.1" baseProfile="tiny" id="Calque_1"
	 xmlns="http://www.w3.org/2000/svg" xmlns:xlink="http://www.w3.org/1999/xlink" x="0px" y="0px" viewBox="0 0 306.9 306.9"
	 overflow="visible" xml:space="preserve">
<g>
	<path fill="#FFFFFF" d="M196.8,301.2c-19.1,0-37.4-6.5-52.1-18.5c-5.8,5.2-13.4,8.1-21.3,8.1c-17.7,0-32-14.4-32-32
		c0-11.5,6.1-21.9,15.8-27.6c-4.1-15-16.2-65.6,0.2-88.7c13.3-18.7,28.6-21.4,36.6-21.4c3.1,0,5.3,0.4,6.1,0.6
		c6.3,1.1,17.6,6.1,21.4,18.2c8.2-2.7,16.7-4,25.4-4c33,0,63.1,20,76,50.1c1.1-0.1,2.2-0.2,3.3-0.2c13.7,0,24.9,11.2,24.9,24.9
		c0,13.2-10.3,24-23.3,24.9c-3.7,17.7-13.2,33.8-27,45.7C235.7,294.1,216.6,301.2,196.8,301.2z"/>
	<path fill="#FFFFFF" d="M143.9,125.5c3.2,0,5.2,0.5,5.2,0.5s17.1,2.7,18.9,19.8c8.9-3.5,18.6-5.5,28.8-5.5
		c33.5,0,62.1,21.1,73.2,50.8c1.9-0.6,4-0.9,6.1-0.9c11.3,0,20.4,9.1,20.4,20.4s-9.1,20.4-20.4,20.4c-0.7,0-1.4,0-2.1-0.1
		c-5.9,37.3-38.2,65.8-77.2,65.8c-20.2,0-38.5-7.6-52.4-20.2c-5.1,6-12.6,9.8-21,9.8c-15.2,0-27.5-12.3-27.5-27.5
		c0-11.3,6.9-21.1,16.7-25.3c-1.3-4.5-18.7-64.2-1.4-88.4C123.1,128.1,136.7,125.5,143.9,125.5 M143.9,116.5l0,9L143.9,116.5
		c-8.8,0-25.7,3-40.2,23.3c-8.6,12-11.2,31.5-7.8,57.9c1.6,12.8,4.3,24.3,6.1,31.4c-9.4,6.8-15.1,17.7-15.1,29.6
		c0,20.1,16.4,36.5,36.5,36.5c7.7,0,15.2-2.4,21.3-6.9c15,11.2,33.2,17.3,52.1,17.3c20.9,0,41.1-7.5,56.9-21.1
		c13.7-11.8,23.4-27.6,27.8-45.1c13.7-2.5,24.1-14.5,24.1-28.9c0-16.2-13.2-29.4-29.4-29.4c-0.2,0-0.3,0-0.5,0
		c-6.4-13.6-16.2-25.2-28.6-34c-14.7-10.4-32.1-15.9-50.2-15.9c-7.7,0-15.4,1-22.8,3c-5.4-11.1-16.6-16-23.2-17.2
		C149.8,116.9,147.3,116.5,143.9,116.5L143.9,116.5z"/>
</g>
</svg>
