<?xml version="1.0" encoding="utf-8"?>
<!-- Generator: Adobe Illustrator 26.0.2, SVG Export Plug-In . SVG Version: 6.00 Build 0)  -->
<svg version="1.1" baseProfile="basic" id="Calque_1"
	 xmlns="http://www.w3.org/2000/svg" xmlns:xlink="http://www.w3.org/1999/xlink" x="0px" y="0px" viewBox="0 0 306.9 306.9"
	 xml:space="preserve">
<path fill="#25252F" d="M283.3,194.9l-0.6-5.9c0-0.2,0-0.4,0-0.6l-0.6-5.2c-0.2-1.8-1.6-3.2-3.4-3.3c-0.2,0-0.5,0-0.8,0l-48.8,5.2
	c0,0,0,0-0.1,0l-16.9,1.8c0,0,0,0,0,0l-27.6,2.9c0,0,0,0-0.1,0l-87.8,9.3c-2,0.2-3.5,2-3.3,4.1l0.5,4.7c0.2,2,2,3.5,4.1,3.3
	l63.5-6.7l0.3,3.3c0.2,2,2,3.5,4.1,3.3l0.8-0.1l1.9,17.9c0.5,4.7,2.8,9,6.5,12c3.2,2.6,7.1,4,11.2,4c0.6,0,1.3,0,1.9-0.1l17.7-1.9
	c9.8-1,16.9-9.8,15.9-19.6l-2.6-24.3l6-0.6l2.6,24.3c0.5,4.7,2.8,9,6.5,12c3.2,2.6,7.1,4,11.2,4c0.6,0,1.3,0,1.9-0.1l17.7-1.9
	c9.8-1,16.9-9.8,15.9-19.6l-1.9-17.9l0.9-0.1C282,198.8,283.5,197,283.3,194.9z M205.1,235l-17.7,1.9c-2.6,0.3-5.2-0.5-7.2-2.1
	c-2-1.7-3.3-4-3.6-6.6l-1.9-17.9l37.3-4l1.9,17.9C214.4,229.5,210.5,234.4,205.1,235z M264.3,228.7l-17.7,1.9
	c-2.6,0.3-5.2-0.5-7.2-2.1c-2-1.7-3.3-4-3.6-6.6l-1.9-17.9l37.3-4l1.9,17.9C273.6,223.2,269.7,228.1,264.3,228.7z"/>
<circle fill="#E5E5E5" cx="169.6" cy="201.1" r="2.6"/>
<circle fill="#E5E5E5" cx="274.1" cy="190" r="2.6"/>
</svg>
