<?xml version="1.0" encoding="utf-8"?>
<!-- Generator: Adobe Illustrator 26.0.2, SVG Export Plug-In . SVG Version: 6.00 Build 0)  -->
<svg version="1.1" baseProfile="basic" id="Calque_1"
	 xmlns="http://www.w3.org/2000/svg" xmlns:xlink="http://www.w3.org/1999/xlink" x="0px" y="0px" viewBox="0 0 306.9 306.9"
	 xml:space="preserve">
<g>
	<defs>
		<rect id="SVGID_00000005977707469641892160000008331224487460869775_" x="362.4" y="-82.9" width="309.3" height="308.3"/>
	</defs>
	<clipPath id="SVGID_00000034083828131388918840000013001451323448938934_">
		<use xlink:href="#SVGID_00000005977707469641892160000008331224487460869775_"  overflow="visible"/>
	</clipPath>
	
		<g id="fVGA3Y.tif_00000039129711209895145440000006294983058611259838_" clip-path="url(#SVGID_00000034083828131388918840000013001451323448938934_)">
		
			<image overflow="visible" width="442" height="412" id="Layer_0_00000147193960149720311150000013910200782724072116_" xlink:href="32D6B80A817241CC.png"  transform="matrix(1.4242 0 0 1.4242 262.6618 -220.2693)">
		</image>
	</g>
</g>
<g>
	<path fill="#FFFFFF" d="M74.4,30.6c23.4,0.7,42.6,19.5,43.8,42.8c0.4,7.6-1.2,15.1-4.5,22c-0.9,2-0.9,4.2,0,6.1
		c1.5,3,3.5,5.8,5.8,8.2c2.5,2.6,0.4,6.9-3.2,6.3c-4.4-0.7-8.7-1.7-12.9-3.1c-2.1-0.7-4.3-0.4-6.2,0.8c-7.4,4.8-16.1,7.2-24.9,7.1
		C47.2,120.6,27,99.5,27.7,74.4c0.7-24.9,21.5-44.5,46.5-43.8C74.3,30.6,74.3,30.6,74.4,30.6z"/>
</g>
<path fill="#25252F" d="M69.8,62.8h-5.1c-0.3,0-0.5,0.2-0.5,0.5V73H56v-9.6c0-0.3-0.2-0.5-0.5-0.5h-5.1c-0.3,0-0.5,0.2-0.5,0.5v24
	c0,0.3,0.2,0.5,0.5,0.5h5.1c0.3,0,0.5-0.2,0.5-0.5v-9h8.2v9c0,0.3,0.2,0.5,0.5,0.5h5.1c0.3,0,0.5-0.2,0.5-0.5v-24
	C70.4,63,70.2,62.8,69.8,62.8z"/>
<path fill="#25252F" d="M77.1,63.3v24c0,0.3,0.2,0.5,0.5,0.5h5.1c0.3,0,0.5-0.2,0.5-0.5v-24c0-0.3-0.2-0.5-0.5-0.5h-5.1
	C77.3,62.8,77.1,63,77.1,63.3z"/>
<path fill="#25252F" d="M97.1,66.2c0.3-2.3-1.3-3.7-3.2-3.7c-1.9,0-3.4,1.4-3.2,3.7l1.5,13.3c0.1,0.4,0.2,0.5,0.5,0.5H95
	c0.3,0,0.5-0.1,0.5-0.5L97.1,66.2z M93.9,88.4c1.7,0,3.2-1.4,3.2-3.1s-1.4-3.1-3.2-3.1c-1.7,0-3.2,1.4-3.2,3.1S92.2,88.4,93.9,88.4z
	"/>
</svg>
