<svg width="180" height="198" viewBox="0 0 180 198" fill="none" xmlns="http://www.w3.org/2000/svg">
<path fill-rule="evenodd" clip-rule="evenodd" d="M73.0636 10.0419C73.5066 9.95947 73.9427 10.0299 74.3175 10.216V13.8008C74.1562 13.8806 73.9812 13.9398 73.7955 13.9744C71.5786 14.387 69.3919 14.8851 67.2388 15.465C66.1723 15.7524 65.0747 15.1207 64.7874 14.0541C64.5001 12.9876 65.1318 11.8901 66.1984 11.6027C68.4529 10.9954 70.7425 10.4739 73.0636 10.0419ZM111.858 15.465C110.335 15.0548 108.796 14.6855 107.24 14.3585V10.2751C109.149 10.6576 111.036 11.1009 112.899 11.6027C113.965 11.89 114.597 12.9876 114.31 14.0541C114.023 15.1207 112.925 15.7524 111.858 15.465ZM74.3175 185.936C73.9427 186.122 73.5066 186.193 73.0636 186.11C70.7426 185.678 68.4529 185.157 66.1984 184.549C65.1319 184.262 64.5001 183.165 64.7875 182.098C65.0748 181.031 66.1723 180.4 67.2388 180.687C69.3919 181.267 71.5786 181.765 73.7955 182.178C73.9812 182.212 74.1562 182.271 74.3175 182.351V185.936ZM107.24 185.877C109.149 185.494 111.036 185.051 112.899 184.549C113.965 184.262 114.597 183.165 114.31 182.098C114.023 181.031 112.925 180.4 111.859 180.687C110.336 181.097 108.796 181.467 107.24 181.794V185.877ZM56.5177 179.204C56.0775 180.217 54.8993 180.682 53.8863 180.241C51.7267 179.303 49.6114 178.282 47.5444 177.182C46.5693 176.663 46.1994 175.452 46.7182 174.477C47.2371 173.502 48.4482 173.132 49.4233 173.651C51.3977 174.701 53.4181 175.676 55.4807 176.573C56.4937 177.013 56.958 178.191 56.5177 179.204ZM122.58 179.204C122.139 178.191 122.604 177.013 123.617 176.573C125.679 175.676 127.7 174.701 129.674 173.651C130.649 173.132 131.86 173.502 132.379 174.477C132.898 175.452 132.528 176.663 131.553 177.182C129.486 178.282 127.371 179.303 125.211 180.241C124.198 180.682 123.02 180.217 122.58 179.204ZM39.3037 169.808C38.6488 170.698 37.3969 170.888 36.5074 170.233C34.6154 168.84 32.7801 167.374 31.0059 165.84C30.1703 165.118 30.0787 163.855 30.8011 163.019C31.5236 162.184 32.7866 162.092 33.6221 162.814C35.3176 164.28 37.0712 165.681 38.879 167.012C39.7685 167.667 39.9587 168.919 39.3037 169.808ZM139.794 169.808C139.139 168.919 139.329 167.667 140.218 167.012C142.026 165.681 143.78 164.28 145.475 162.814C146.311 162.092 147.574 162.183 148.296 163.019C149.019 163.855 148.927 165.118 148.091 165.84C146.317 167.374 144.482 168.84 142.59 170.233C141.7 170.888 140.449 170.698 139.794 169.808ZM24.6057 156.824C23.7702 157.546 22.5072 157.454 21.7847 156.619C20.2505 154.845 18.7848 153.009 17.3918 151.117C16.7368 150.228 16.927 148.976 17.8165 148.321C18.7059 147.666 19.9579 147.856 20.6128 148.746C21.9439 150.554 23.3444 152.307 24.8104 154.003C25.5329 154.838 25.4412 156.101 24.6057 156.824ZM154.492 156.824C153.656 156.101 153.564 154.838 154.287 154.003C155.753 152.307 157.153 150.553 158.485 148.746C159.139 147.856 160.391 147.666 161.281 148.321C162.17 148.976 162.361 150.228 161.706 151.117C160.313 153.009 158.847 154.845 157.313 156.619C156.59 157.454 155.327 157.546 154.492 156.824ZM13.148 140.907C12.1729 141.425 10.9618 141.055 10.4429 140.08C9.34313 138.013 8.32193 135.898 7.38335 133.738C6.94306 132.725 7.40736 131.547 8.4204 131.107C9.43343 130.667 10.6116 131.131 11.0518 132.144C11.9483 134.207 12.9236 136.227 13.9742 138.201C14.493 139.177 14.1231 140.388 13.148 140.907ZM165.949 140.906C164.974 140.388 164.604 139.177 165.123 138.201C166.174 136.227 167.149 134.207 168.045 132.144C168.486 131.131 169.664 130.667 170.677 131.107C171.69 131.547 172.154 132.725 171.714 133.738C170.775 135.898 169.754 138.013 168.654 140.08C168.136 141.055 166.924 141.425 165.949 140.906ZM5.52672 122.837C4.46018 123.125 3.36266 122.493 3.07535 121.426C2.46802 119.172 1.9465 116.882 1.51454 114.561C1.31242 113.475 2.0289 112.431 3.11482 112.229C4.20075 112.027 5.2449 112.743 5.44701 113.829C5.85959 116.046 6.35767 118.233 6.93765 120.386C7.22496 121.452 6.59326 122.55 5.52672 122.837ZM173.571 122.837C172.504 122.55 171.872 121.452 172.16 120.386C172.74 118.233 173.238 116.046 173.65 113.829C173.852 112.743 174.897 112.027 175.983 112.229C177.068 112.431 177.785 113.475 177.583 114.561C177.151 116.882 176.629 119.172 176.022 121.426C175.735 122.493 174.637 123.125 173.571 122.837ZM2.14395 103.521C1.04022 103.564 0.110825 102.704 0.0680848 101.6C0.0228272 100.431 3.75076e-08 99.256 0 98.0761C-3.75073e-08 96.8961 0.0228271 95.7213 0.0680846 94.5522C0.110824 93.4485 1.04022 92.5884 2.14395 92.6311C3.2477 92.6738 4.10782 93.6032 4.06509 94.707C4.02184 95.8245 4 96.9477 4 98.0761C4 99.2044 4.02184 100.328 4.06509 101.445C4.10782 102.549 3.2477 103.478 2.14395 103.521ZM176.953 103.521C175.85 103.478 174.989 102.549 175.032 101.445C175.075 100.328 175.097 99.2044 175.097 98.0761C175.097 96.9477 175.075 95.8245 175.032 94.7069C174.989 93.6032 175.85 92.6738 176.953 92.6311C178.057 92.5884 178.986 93.4485 179.029 94.5522C179.074 95.7213 179.097 96.8961 179.097 98.0761C179.097 99.256 179.074 100.431 179.029 101.6C178.986 102.704 178.057 103.564 176.953 103.521ZM3.11482 83.9232C2.0289 83.7211 1.31242 82.6769 1.51453 81.591C1.9465 79.27 2.468 76.9803 3.07533 74.7258C3.36264 73.6592 4.46016 73.0275 5.52672 73.3149C6.59326 73.6022 7.22496 74.6997 6.93765 75.7662C6.35767 77.9193 5.85959 80.106 5.44701 82.3229C5.2449 83.4088 4.20074 84.1253 3.11482 83.9232ZM175.982 83.9231C174.897 84.1252 173.852 83.4088 173.65 82.3228C173.238 80.106 172.74 77.9193 172.16 75.7662C171.872 74.6997 172.504 73.6021 173.571 73.3148C174.637 73.0275 175.735 73.6592 176.022 74.7258C176.629 76.9803 177.151 79.2699 177.583 81.591C177.785 82.6769 177.068 83.721 175.982 83.9231ZM8.42038 65.0451C7.40735 64.6048 6.94305 63.4267 7.38333 62.4137C8.32193 60.2541 9.34312 58.1388 10.4429 56.0718C10.9617 55.0967 12.1729 54.7268 13.148 55.2456C14.1231 55.7645 14.493 56.9755 13.9742 57.9507C12.9236 59.9251 11.9483 61.9455 11.0518 64.0081C10.6116 65.0211 9.43341 65.4854 8.42038 65.0451ZM170.677 65.0451C169.664 65.4854 168.486 65.0211 168.045 64.0081C167.149 61.9455 166.174 59.9251 165.123 57.9507C164.604 56.9755 164.974 55.7644 165.949 55.2456C166.924 54.7267 168.136 55.0967 168.654 56.0718C169.754 58.1388 170.775 60.2541 171.714 62.4137C172.154 63.4267 171.69 64.6048 170.677 65.0451ZM17.8165 47.8311C16.927 47.1762 16.7368 45.9243 17.3917 45.0348C18.7848 43.1428 20.2505 41.3075 21.7847 39.5333C22.5071 38.6977 23.7701 38.6061 24.6057 39.3285C25.4412 40.051 25.5329 41.314 24.8104 42.1495C23.3444 43.845 21.9439 45.5986 20.6128 47.4064C19.9579 48.2959 18.7059 48.486 17.8165 47.8311ZM161.281 47.8311C160.391 48.486 159.139 48.2959 158.484 47.4064C157.153 45.5986 155.753 43.845 154.287 42.1495C153.564 41.314 153.656 40.051 154.492 39.3285C155.327 38.606 156.59 38.6977 157.313 39.5332C158.847 41.3075 160.312 43.1427 161.706 45.0348C162.36 45.9242 162.17 47.1762 161.281 47.8311ZM30.8011 33.1331C30.0786 32.2976 30.1703 31.0346 31.0058 30.3121C32.7801 28.7779 34.6153 27.3122 36.5074 25.9192C37.3968 25.2642 38.6488 25.4544 39.3037 26.3439C39.9586 27.2333 39.7685 28.4853 38.879 29.1402C37.0712 30.4713 35.3176 31.8718 33.6221 33.3378C32.7866 34.0603 31.5236 33.9686 30.8011 33.1331ZM148.296 33.1331C147.574 33.9686 146.311 34.0603 145.475 33.3378C143.78 31.8718 142.026 30.4713 140.218 29.1402C139.329 28.4853 139.139 27.2333 139.794 26.3438C140.448 25.4544 141.7 25.2642 142.59 25.9191C144.482 27.3122 146.317 28.7779 148.091 30.3121C148.927 31.0345 149.019 32.2975 148.296 33.1331ZM46.7182 21.6754C46.1994 20.7003 46.5693 19.4892 47.5444 18.9703C49.6114 17.8705 51.7267 16.8493 53.8863 15.9107C54.8993 15.4704 56.0774 15.9348 56.5177 16.9478C56.958 17.9608 56.4937 19.139 55.4807 19.5792C53.4181 20.4757 51.3977 21.451 49.4233 22.5016C48.4481 23.0204 47.237 22.6505 46.7182 21.6754ZM132.379 21.6754C131.86 22.6505 130.649 23.0204 129.674 22.5016C127.7 21.451 125.679 20.4757 123.617 19.5792C122.604 19.139 122.139 17.9608 122.58 16.9478C123.02 15.9347 124.198 15.4704 125.211 15.9107C127.371 16.8493 129.486 17.8705 131.553 18.9703C132.528 19.4891 132.898 20.7002 132.379 21.6754Z" fill="#101016"/>
<path fill-rule="evenodd" clip-rule="evenodd" d="M83.5858 187.432C82.8047 186.651 82.8047 185.384 83.5858 184.603L92.5858 175.603C93.3668 174.822 94.6332 174.822 95.4142 175.603C96.1953 176.384 96.1953 177.651 95.4142 178.432L87.8284 186.018L95.4142 193.603C96.1953 194.384 96.1953 195.651 95.4142 196.432C94.6332 197.213 93.3668 197.213 92.5858 196.432L83.5858 187.432Z" fill="#ECB236"/>
<path fill-rule="evenodd" clip-rule="evenodd" d="M83.5858 0.58774C84.3668 -0.193309 85.6332 -0.193309 86.4142 0.58774L95.4142 9.58774C96.1953 10.3688 96.1953 11.6351 95.4142 12.4162L86.4142 21.4162C85.6332 22.1972 84.3668 22.1972 83.5858 21.4162C82.8047 20.6351 82.8047 19.3688 83.5858 18.5877L91.1716 11.002L83.5858 3.41617C82.8047 2.63512 82.8047 1.36879 83.5858 0.58774Z" fill="#ECB236"/>
</svg>
