<svg fill="none" height="24" viewBox="0 0 37 24" width="37" xmlns="http://www.w3.org/2000/svg"><path d="m14.4836 2.29476-.0001-.00003-.0036.01118-3.002 9.37129-2.98123-9.36942.00009-.00003-.00434-.01299c-.09503-.28511-.27404-.57282-.57957-.77208-.29303-.1911-.59868-.23258-.8237-.23258h-3.93089c-.33694 0-.81641.11068-1.12689.549-.31119.43933-.25615.92796-.13074 1.25585l6.44012 17.93085h-.00009l.0049.0131c.09911.2642.2724.5226.54242.7104.27014.1879.57101.2593.8485.2593h3.42282c.5097 0 1.1795-.2632 1.4444-.9697h.0001l.0043-.0119 6.467-17.93128c.1256-.3279.181-.81695-.1305-1.25662-.3104-.43832-.7899-.549-1.1269-.549h-3.9308c-.2251 0-.5307.04148-.8237.23258-.3056.19926-.4846.48697-.5796.77208zm15.8302 6.18306.0066.00426.0067.00417c.2362.14766.589.28788 1.0066.2133.4116-.0735.6955-.32141.873-.55255l1.944-2.42338.0368-.04588.0312-.04986c.1158-.18526.2723-.49764.2429-.89468-.0308-.41575-.2477-.71439-.4373-.90399l-.0153-.01536-.016-.01468c-1.7372-1.59241-3.8129-2.723-6.6122-2.723-3.4305 0-7.0969 2.22152-7.0969 6.5086 0 1.80448.6293 3.15693 1.5963 4.17193.9361.9826 2.1459 1.6036 3.2408 2.0645.4708.1981.9425.3753 1.3724.5367.0726.0273.1441.0541.2141.0805.498.1878.9203.3524 1.2704.5219.3575.173.5652.317.676.431.0817.0839.0806.1169.0801.1324v.0031c0 .1275-.0395.2138-.1915.3113-.1876.1203-.5067.2129-.8943.2129-1.1693 0-2.1068-.377-3.4395-1.3855-.2864-.2367-.6652-.3776-1.0773-.3244-.3904.0504-.703.2614-.9096.5241l-2.0344 2.2985-.0052.006-.0052.006c-.2289.2671-.3632.6075-.3505.976.0123.3554.1577.656.3415.8765l.0065.0077.0065.0076c1.3869 1.5979 4.1622 3.3128 7.3335 3.3128 1.7542 0 3.6454-.5095 5.1238-1.6125 1.5084-1.1253 2.5614-2.8566 2.5614-5.1636 0-1.8861-.6166-3.2851-1.5924-4.3211-.9457-1.004-2.1684-1.60206-3.2712-2.02959-.4955-.19207-.9905-.35816-1.4371-.50802-.053-.01779-.1053-.03536-.1569-.05271-.5001-.16824-.9202-.31383-1.2683-.46751-.356-.15713-.5543-.28836-.6562-.38958-.0687-.06834-.0684-.09316-.068-.11545 0-.00151 0-.00301 0-.00451 0-.0349.0105-.0814.0724-.13409.0668-.05685.2647-.17621.7192-.17621.8512 0 1.4498.24044 2.7726 1.09639z" stroke="#44ac9e" stroke-width="2"/></svg>