<svg fill="none" height="25" viewBox="0 0 23 25" width="23" xmlns="http://www.w3.org/2000/svg" xmlns:xlink="http://www.w3.org/1999/xlink"><clipPath id="a"><path d="m.134766.875h22v24h-22z"/></clipPath><g clip-path="url(#a)" fill="#ecb236"><path d="m8.85802 9.04038c2.34628 0 4.69258-.01614 7.03618 0 1.5427-.0082 3.0331.56503 4.1803 1.60782 1.1471 1.0428 1.8688 2.4804 2.0243 4.0322s-.2663 3.1065-1.1833 4.3607c-.917 1.2543-2.2633 2.1181-3.7763 2.423-1.0082.2017-1.7051.5379-2.285 1.4658-.8566 1.3879-2.3145 1.8827-3.9 1.907-1.94724.0242-3.89718.0618-5.85244 0-2.92624-.1076-4.788373-1.8048-4.905423-4.7392-.1409914-3.3971-.029257-6.8022-.06118-10.20196 0-.89835.531992-.85805 1.143843-.85536 2.53253.00537 5.05448 0 7.57902 0zm6.96438 6.22392v2.5337c0 .5137.1916.7182.7236.6294 1.2503-.2098 2.3729-1.5708 2.4128-2.9587.0426-1.4766-.9975-2.8887-2.3037-3.1899-.548-.1238-.8513-.0485-.8353.5998.0133.7853 0 1.5869 0 2.3857z"/><rect height="5" rx="1.5" width="3" x="9" y="1"/><rect height="5" rx="1.5" width="3" x="9" y="1"/><rect height="5" rx="1.5" width="3" x="3" y="1"/><rect height="5" rx="1.5" width="3" x="3" y="1"/></g></svg>