<svg fill="none" height="42" viewBox="0 0 56 42" width="56" xmlns="http://www.w3.org/2000/svg"><g stroke-linecap="round" stroke-linejoin="round" stroke-width="2"><g stroke="#cf9a28"><path d="m50.5 31.9991 2.2605-1.3363c1.6563-.8921 1.9497-3.5541.6612-5.9427-1.2885-2.3887-3.6747-3.5971-5.3303-2.701l-4.0914 2.4809"/><path d="m11 24-3.84961-1.4099c-1.7168-.6435-3.87218.7857-4.8158 3.1944-.94363 2.4087-.30851 4.8862 1.41176 5.5339l1.25365.6816"/><path d="m9 30 9.9282-27.47724c.6803-1.882831 3.3385-1.895635 4.0369-.01944l7.3303 19.69148 3.8076-12.20341c.6128-1.96376 3.3684-2.02844 4.0726-.09559l7.3244 20.1042"/></g><path d="m17.5 30 2.8237-8.9025c.3139-.9895 1.7066-1.0101 2.0496-.0303l3.1267 8.9328" stroke="#b82e38"/><path d="m33.5 30 1.7933-5.0328c.3449-.9681 1.7192-.9532 2.0431.0222l1.6636 5.0106" stroke="#b82e38"/><path d="m8 30h39.8339c1.7545 0 3.1661 2.46 3.1661 5.4982s-1.4184 5.5018-3.1728 5.5018h-39.8272" stroke="#cf9a28"/><path d="m8 41c1.65685 0 3-2.4624 3-5.5s-1.34315-5.5-3-5.5-3 2.4624-3 5.5 1.34315 5.5 3 5.5z" stroke="#cf9a28"/></g></svg>