<svg fill="none" height="24" viewBox="0 0 60 24" width="60" xmlns="http://www.w3.org/2000/svg"><path d="m15.2263 14.6599-.0074.0065-.0074.0065c-.809.7216-1.8299 1.1636-3.1583 1.1636-2.22787 0-3.97378-1.7438-3.97378-4.1343 0-2.45087 1.75262-4.18767 3.97378-4.18767 1.3167 0 2.3458.46096 3.1698 1.17363l.0033.00289c.2497.21397.5933.37023.985.35718.3865-.01288.7447-.19116.9912-.49622l1.3019-1.40667c-.6522 1.37784-1.018 2.92136-1.018 4.55686 0 1.6202.3621 3.1509 1.008 4.5194l-1.2915-1.3954c-.2246-.279-.5511-.4682-.9254-.5057-.3999-.0399-.7724.1005-1.0512.3394zm12.9135-13.61107c-3.3148 0-6.2982 1.52021-8.2588 3.91939-.0297-.32847-.1819-.61173-.3919-.82831-1.8343-1.97808-4.4834-3.09108-7.3824-3.09108-5.91272 0-10.73365 4.65839-10.73365 10.65337 0 5.9416 4.82093 10.6267 10.73365 10.6267 2.9113 0 5.5592-1.1484 7.3876-3.0967l.0119-.0127.0115-.0131c.1723-.197.3283-.4648.362-.7936 1.9609 2.3955 4.9452 3.9161 8.2601 3.9161 4.5625 0 8.4986-2.8805 10.0022-6.9578 1.5036 4.0773 5.4398 6.9578 10.0022 6.9578 5.8397 0 10.6534-4.719 10.6534-10.6267 0-5.93254-4.8118-10.65337-10.6534-10.65337-4.5636 0-8.4988 2.88131-10.0022 6.97071-1.5033-4.0894-5.4385-6.97071-10.0022-6.97071zm0 14.84107c-2.2584 0-4.054-1.8011-4.054-4.1877 0-2.41668 1.7989-4.21441 4.054-4.21441 2.2552 0 4.054 1.79773 4.054 4.21441 0 2.3866-1.7955 4.1877-4.054 4.1877zm20.0044 0c-2.2584 0-4.054-1.8011-4.054-4.1877 0-2.41668 1.7989-4.21441 4.054-4.21441s4.054 1.79773 4.054 4.21441c0 2.3866-1.7955 4.1877-4.054 4.1877z" stroke="#e72a6e" stroke-width="2"/></svg>