<svg fill="none" height="46" viewBox="0 0 40 46" width="40" xmlns="http://www.w3.org/2000/svg"><g fill="#7174db"><path d="m13.1731 33.4807.8548-.8617-.3549-.3521h-.4999zm.0004.0003.8582-.8582-.0034-.0035zm6.0814 6.0815.8583-.8583zm7.798-6.0815-.8514-.8651-.0068.0069zm.0004-.0003v-1.2138h-.4971l-.3543.3487zm-23.77607-29.76023c0-.67033.54341-1.21375 1.21375-1.21375v-2.4275026c-2.01101 0-3.641255 1.6302426-3.641255 3.6412526zm0 27.33273v-27.33273h-2.427505v27.33273zm1.21375 1.2137c-.67034 0-1.21375-.5434-1.21375-1.2137h-2.427505c0 2.011 1.630245 3.6412 3.641255 3.6412zm8.68212 0h-8.68212v2.4275h8.68212zm.8552.3524-.0004-.0003-1.7096 1.7234.0004.0003zm6.0849 6.0849-6.0815-6.0814-1.7165 1.7165 6.0815 6.0814zm0 0-1.7165 1.7165c.948.948 2.485.948 3.433 0zm6.0815-6.0814-6.0815 6.0814 1.7165 1.7165 6.0815-6.0814zm.0072-.0072c-.0034.0033-.0062.0061-.0078.0078-.0009.0008-.0016.0015-.002.0019-.0002.0003-.0004.0004-.0005.0005s-.0001.0001-.0001.0002c-.0001 0-.0001 0-.0001 0-.0002.0003.001-.001.0025-.0025.0016-.0016.0043-.0043.0076-.0076l1.7028 1.7302c.0034-.0033.0061-.0061.0078-.0078.0009-.0008.0015-.0015.002-.0019.0002-.0003.0004-.0004.0005-.0005 0-.0001.0001-.0001.0001-.0002.0003-.0003-.001.001-.0024.0025-.0016.0016-.0043.0043-.0077.0076zm9.5336-.3487h-8.6822v2.4275h8.6822zm1.2137-1.2137c0 .6703-.5434 1.2137-1.2137 1.2137v2.4275c2.011 0 3.6412-1.6302 3.6412-3.6412zm0-27.33273v27.33273h2.4275v-27.33273zm-1.2137-1.21375c.6703 0 1.2137.54341 1.2137 1.21375h2.4275c0-2.01101-1.6302-3.6412526-3.6412-3.6412526zm-31.24452 0h31.24452v-2.4275026h-31.24452z"/><path clip-rule="evenodd" d="m2.06348 31.6065c.2506 1.0738 1.2139 1.8736 2.36402 1.8736h8.6822l.0003.0004 6.0815 6.0814c.474.474 1.2425.474 1.7165 0l6.0814-6.0814.0004-.0004h8.6822c1.3407 0 2.4275-1.0868 2.4275-2.4275v-23.53307c.0415.17791.0635.36335.0635.55391v27.33266c0 1.3407-1.0869 2.4275-2.4275 2.4275h-8.6808l-.0017.0017-6.0815 6.0815c-.474.474-1.2425.474-1.7165 0l-6.0814-6.0815-.0017-.0017h-8.68092c-1.34067 0-2.4275-1.0868-2.4275-2.4275z" fill-rule="evenodd"/><path d="m2.06348 31.6065 1.18198-.2758-2.395735.2758zm11.04622 1.8736.8582-.8582-.3555-.3555h-.5027zm.0003.0004-.8582.8582zm6.0815 6.0814.8582-.8582zm1.7165 0 .8582.8583zm6.0814-6.0814-.8582-.8583zm.0004-.0004v-1.2137h-.5028l-.3555.3555zm11.1097-25.96057 1.182-.27586-2.3958.27586zm-11.0448 30.31407v-1.2137h-.5036l-.3556.3564zm-.0017.0017.8582.8583.001-.001zm-6.0815 6.0815.8583.8582zm-1.7165 0-.8582.8582zm-6.0814-6.0815-.859.8575.0007.0008zm-.0017-.0017.859-.8575-.3557-.3562h-.5033zm-12.290411-5.9512c.375921 1.6107 1.819271 2.8115 3.546011 2.8115v-2.4275c-.57349 0-1.05676-.399-1.18204-.9357zm3.546011 2.8115h8.6822v-2.4275h-8.6822zm7.8239-.3555.0004.0003 1.7165-1.7165-.0004-.0003zm.0004.0003 6.0814 6.0815 1.7165-1.7165-6.0814-6.0815zm6.0814 6.0815c.948.948 2.485.948 3.433 0l-1.7165-1.7165zm3.433 0 6.0815-6.0815-1.7165-1.7165-6.0815 6.0815zm6.0815-6.0815.0003-.0003-1.7165-1.7165-.0003.0003zm-.8579.3552h8.6822v-2.4275h-8.6822zm8.6822 0c2.011 0 3.6412-1.6303 3.6412-3.6413h-2.4275c0 .6704-.5434 1.2138-1.2137 1.2138zm3.6412-3.6413v-23.53307h-2.4275v23.53307zm.0635-22.97916c0-.28409-.0327-.56207-.0952-.82977l-2.364.55173c.0206.08812.0317.181.0317.27804zm0 27.33266v-27.33266h-2.4275v27.33266zm-3.6412 3.6413c2.011 0 3.6412-1.6303 3.6412-3.6413h-2.4275c0 .6704-.5434 1.2138-1.2137 1.2138zm-8.6808 0h8.6808v-2.4275h-8.6808zm.8575-.3548.0017-.0017-1.7184-1.7146-.0017.0017zm-6.0824 6.0824 6.0814-6.0814-1.7165-1.7165-6.0814 6.0814zm-3.433 0c.948.948 2.485.948 3.433 0l-1.7165-1.7165zm-6.0815-6.0814 6.0815 6.0814 1.7165-1.7165-6.0815-6.0814zm-.0024-.0024.0017.0016 1.7179-1.715-.0016-.0017zm-7.82192.3562h8.68092v-2.4275h-8.68092zm-3.641255-3.6413c0 2.011 1.630245 3.6413 3.641255 3.6413v-2.4275c-.67034 0-1.21375-.5434-1.21375-1.2138zm0-3.7996v3.7996h2.427505v-3.7996z"/></g><ellipse cx="12.9279" cy="18.6993" rx="3.06457" ry="3.06457" stroke="#7174db" stroke-width="2.4275"/><circle cx="27.298" cy="18.6993" r="3.06457" stroke="#7174db" stroke-width="2.4275"/><path d="m15.3926 19.0059h8.5441" stroke="#7174db" stroke-width="1.82063"/></svg>