<svg width="36" height="34" viewBox="0 0 36 34" fill="none" xmlns="http://www.w3.org/2000/svg">
<path d="M33.7276 34H2.27514C2.18373 33.9767 2.10238 33.9525 2.01463 33.9309C1.44646 33.7978 0.940887 33.4908 0.576788 33.0576C0.138031 32.5437 0 31.952 0 31.3034C0.00548446 21.76 0.00548446 12.2161 0 2.67159C0 2.57226 0.00457485 2.47293 0.00457485 2.37274C0.00822917 2.09441 0.067466 1.81923 0.179167 1.56167C0.573134 0.611538 1.55028 0 2.67733 0H33.3163C33.3538 0 33.3912 0 33.4287 0C33.8066 0.0097215 34.1781 0.0953096 34.5183 0.251082C34.8586 0.406854 35.1599 0.629245 35.4022 0.903487C35.8592 1.4131 36 2.01341 36 2.67073C35.9945 12.2147 35.9945 21.7586 36 31.3025C36 31.4303 36 31.5616 35.9927 31.686C35.9502 32.3188 35.6482 32.911 35.1508 33.3366C34.7468 33.6977 34.255 33.8817 33.7276 34ZM14.0676 20.826V28.5316C14.0676 28.9185 14.0676 28.9185 14.4863 28.9185H18.8684C19.308 28.9185 19.308 28.9185 19.308 28.5126V20.8917C19.3026 20.2864 19.3638 19.6823 19.4909 19.089C19.809 17.6733 20.6444 16.9132 22.1051 16.7672C23.6938 16.61 24.8053 17.1844 25.1782 18.7746C25.3107 19.3739 25.3738 19.985 25.3665 20.5971C25.3708 23.2661 25.3708 25.9345 25.3665 28.6024C25.3665 28.8883 25.3912 28.9177 25.6554 28.9177C27.2294 28.9177 28.8035 28.9177 30.3766 28.9177C30.5832 28.9177 30.6508 28.8434 30.6508 28.6516C30.6216 25.3011 30.7139 21.9489 30.596 18.5992C30.5672 17.673 30.4001 16.7553 30.0996 15.8732C29.5292 14.2148 28.393 13.1092 26.5905 12.6445C25.6428 12.4019 24.6567 12.322 23.6792 12.4087C21.8382 12.5694 20.3437 13.32 19.3318 14.8272C19.2934 14.8842 19.266 14.9767 19.1746 14.9568C19.0832 14.9369 19.0923 14.8315 19.0914 14.7581C19.0914 14.2105 19.0914 13.662 19.0914 13.117C19.0914 12.7896 19.0795 12.7784 18.7377 12.7784H14.468C14.0713 12.7784 14.0704 12.7784 14.0704 13.161L14.0676 20.826ZM10.638 20.8588C10.638 18.2831 10.638 15.7071 10.638 13.1308C10.638 12.7853 10.6307 12.7801 10.2724 12.7801H5.7532C5.39763 12.7801 5.38757 12.7862 5.38757 13.1308V28.5661C5.38757 28.9116 5.39397 28.9185 5.77331 28.9185H10.2459C10.628 28.9185 10.6316 28.9142 10.6325 28.5445L10.638 20.8588ZM11.0951 7.6261C11.0972 7.0531 10.9196 6.49236 10.5846 6.01474C10.2496 5.53713 9.77222 5.16409 9.21289 4.94276C8.65357 4.72144 8.03736 4.66177 7.44216 4.7713C6.84696 4.88082 6.29948 5.15463 5.86891 5.55811C5.43835 5.96159 5.14404 6.47663 5.02317 7.03814C4.9023 7.59964 4.96031 8.1824 5.18985 8.71276C5.4194 9.24312 5.81018 9.69727 6.31281 10.0178C6.81543 10.3384 7.40734 10.5109 8.01371 10.5136C8.41689 10.5164 8.81665 10.4437 9.18997 10.2998C9.5633 10.1559 9.90282 9.9437 10.189 9.67531C10.4751 9.40691 10.7023 9.08768 10.8573 8.73598C11.0123 8.38429 11.0922 8.00708 11.0923 7.6261H11.0951Z" fill="#3B3B44"/>
</svg>
