<?xml version="1.0" encoding="utf-8"?>
<!-- Generator: Adobe Illustrator 26.0.2, SVG Export Plug-In . SVG Version: 6.00 Build 0)  -->
<svg version="1.1" baseProfile="basic" id="Calque_1"
	 xmlns="http://www.w3.org/2000/svg" xmlns:xlink="http://www.w3.org/1999/xlink" x="0px" y="0px" viewBox="0 0 306.9 306.9"
	 xml:space="preserve">
<g>
	<path fill="#8A7FF7" d="M241,121.8c-2.5,0-4.6-2.1-4.6-4.6v-5.1l-3.6,3.6c-0.9,0.9-2,1.4-3.3,1.4c-1.2,0-2.4-0.5-3.3-1.4
		c-0.9-0.9-1.4-2-1.4-3.3s0.5-2.4,1.4-3.3l3.6-3.6h-5.1c-2.5,0-4.6-2.1-4.6-4.6s2.1-4.6,4.6-4.6h5.1l-3.6-3.6
		c-0.9-0.9-1.4-2-1.4-3.3s0.5-2.4,1.4-3.3c0.9-0.9,2-1.4,3.3-1.4c1.2,0,2.4,0.5,3.3,1.4l3.6,3.6v-5.1c0-2.5,2.1-4.6,4.6-4.6
		s4.6,2.1,4.6,4.6v5.1l3.6-3.6c0.9-0.9,2-1.4,3.3-1.4c1.2,0,2.4,0.5,3.3,1.4c0.9,0.9,1.4,2,1.4,3.3s-0.5,2.4-1.4,3.3l-3.6,3.6h5.1
		c2.5,0,4.6,2.1,4.6,4.6s-2.1,4.6-4.6,4.6h-5.1l3.6,3.6c0.9,0.9,1.4,2,1.4,3.3s-0.5,2.4-1.4,3.3c-0.9,0.9-2,1.4-3.3,1.4
		c-1.2,0-2.4-0.5-3.3-1.4l-3.6-3.6v5.1C245.6,119.8,243.5,121.8,241,121.8z"/>
	<path fill="#FFFFFF" d="M241,82.1c1.4,0,2.6,1.2,2.6,2.6v9.9l7-7c0.5-0.5,1.2-0.8,1.8-0.8c0.7,0,1.3,0.3,1.8,0.8c1,1,1,2.7,0,3.7
		l-7,7h9.9c1.4,0,2.6,1.2,2.6,2.6c0,1.4-1.2,2.6-2.6,2.6h-9.9l7,7c1,1,1,2.7,0,3.7c-0.5,0.5-1.2,0.8-1.8,0.8c-0.7,0-1.3-0.3-1.8-0.8
		l-7-7v9.9c0,1.4-1.2,2.6-2.6,2.6c-1.4,0-2.6-1.2-2.6-2.6v-9.9l-7,7c-0.5,0.5-1.2,0.8-1.8,0.8s-1.3-0.3-1.8-0.8c-1-1-1-2.7,0-3.7
		l7-7h-9.9c-1.4,0-2.6-1.2-2.6-2.6c0-1.4,1.2-2.6,2.6-2.6h9.9l-7-7c-1-1-1-2.7,0-3.7c0.5-0.5,1.2-0.8,1.8-0.8c0.7,0,1.3,0.3,1.8,0.8
		l7,7v-9.9C238.4,83.3,239.5,82.1,241,82.1 M241,78.1c-3.6,0-6.6,3-6.6,6.6V85l-0.2-0.2c-1.2-1.2-2.9-1.9-4.7-1.9
		c-1.8,0-3.4,0.7-4.7,1.9c-1.2,1.2-1.9,2.9-1.9,4.7c0,1.8,0.7,3.4,1.9,4.7l0.2,0.2h-0.3c-3.6,0-6.6,3-6.6,6.6s3,6.6,6.6,6.6h0.3
		l-0.2,0.2c-1.2,1.2-1.9,2.9-1.9,4.7s0.7,3.4,1.9,4.7c1.2,1.2,2.9,1.9,4.7,1.9c1.8,0,3.4-0.7,4.7-1.9l0.2-0.2v0.3
		c0,3.6,3,6.6,6.6,6.6c3.6,0,6.6-3,6.6-6.6V117l0.2,0.2c1.2,1.2,2.9,1.9,4.7,1.9c1.8,0,3.4-0.7,4.7-1.9c1.2-1.2,1.9-2.9,1.9-4.7
		s-0.7-3.4-1.9-4.7l-0.2-0.2h0.3c3.6,0,6.6-3,6.6-6.6s-3-6.6-6.6-6.6h-0.3l0.2-0.2c1.2-1.2,1.9-2.9,1.9-4.7c0-1.8-0.7-3.4-1.9-4.7
		c-1.2-1.2-2.9-1.9-4.7-1.9c-1.8,0-3.4,0.7-4.7,1.9l-0.2,0.2v-0.3C247.6,81.1,244.6,78.1,241,78.1L241,78.1z"/>
</g>
<g>
	<path fill="#FCC648" d="M179.7,78c-1.8,0-3.3-1.5-3.3-3.3v-0.2l-0.2,0.2c-0.6,0.6-1.5,1-2.4,1c-0.9,0-1.7-0.3-2.4-1
		c-0.6-0.6-1-1.5-1-2.4c0-0.9,0.3-1.7,1-2.4l0.2-0.2h-0.2c-1.8,0-3.3-1.5-3.3-3.3s1.5-3.3,3.3-3.3h0.2l-0.2-0.2
		c-0.6-0.6-1-1.5-1-2.4s0.3-1.7,1-2.4c0.6-0.6,1.5-1,2.4-1c0.9,0,1.7,0.3,2.4,1l0.2,0.2v-0.2c0-1.8,1.5-3.3,3.3-3.3s3.3,1.5,3.3,3.3
		v0.2l0.2-0.2c0.6-0.6,1.5-1,2.4-1c0.9,0,1.7,0.3,2.4,1c0.6,0.6,1,1.5,1,2.4c0,0.9-0.3,1.7-1,2.4l-0.2,0.2h0.2
		c1.8,0,3.3,1.5,3.3,3.3s-1.5,3.3-3.3,3.3h-0.2l0.2,0.2c0.6,0.6,1,1.5,1,2.4c0,0.9-0.3,1.7-1,2.4c-0.6,0.6-1.5,1-2.4,1
		c-0.9,0-1.7-0.3-2.4-1l-0.2-0.2v0.2C183.1,76.5,181.6,78,179.7,78z"/>
	<path fill="#FFFFFF" d="M179.7,56.8c0.7,0,1.3,0.6,1.3,1.3v5.1l3.6-3.6c0.3-0.3,0.6-0.4,0.9-0.4c0.3,0,0.7,0.1,0.9,0.4
		c0.5,0.5,0.5,1.4,0,1.9l-3.6,3.6h5.1c0.7,0,1.3,0.6,1.3,1.3c0,0.7-0.6,1.3-1.3,1.3H183l3.6,3.6c0.5,0.5,0.5,1.4,0,1.9
		c-0.3,0.3-0.6,0.4-0.9,0.4c-0.3,0-0.7-0.1-0.9-0.4l-3.6-3.6v5.1c0,0.7-0.6,1.3-1.3,1.3s-1.3-0.6-1.3-1.3v-5.1l-3.6,3.6
		c-0.3,0.3-0.6,0.4-0.9,0.4c-0.3,0-0.7-0.1-0.9-0.4c-0.5-0.5-0.5-1.4,0-1.9l3.6-3.6h-5.1c-0.7,0-1.3-0.6-1.3-1.3
		c0-0.7,0.6-1.3,1.3-1.3h5.1l-3.6-3.6c-0.5-0.5-0.5-1.4,0-1.9c0.3-0.3,0.6-0.4,0.9-0.4s0.7,0.1,0.9,0.4l3.6,3.6v-5.1
		C178.4,57.4,179,56.8,179.7,56.8 M179.7,52.8c-1.9,0-3.6,1-4.6,2.6c-0.4-0.1-0.9-0.2-1.3-0.2c-1.4,0-2.8,0.6-3.8,1.6
		c-1,1-1.6,2.3-1.6,3.8c0,0.4,0.1,0.9,0.2,1.3c-1.5,0.9-2.6,2.6-2.6,4.6s1,3.6,2.6,4.6c-0.1,0.4-0.2,0.9-0.2,1.3
		c0,1.4,0.6,2.8,1.6,3.8c1,1,2.3,1.6,3.8,1.6c0.4,0,0.9-0.1,1.3-0.2c0.9,1.5,2.6,2.6,4.6,2.6s3.6-1,4.6-2.6c0.4,0.1,0.9,0.2,1.3,0.2
		c1.4,0,2.8-0.6,3.8-1.6c1-1,1.6-2.3,1.6-3.8c0-0.4-0.1-0.9-0.2-1.3c1.5-0.9,2.6-2.6,2.6-4.6s-1-3.6-2.6-4.6
		c0.1-0.4,0.2-0.9,0.2-1.3c0-1.4-0.6-2.8-1.6-3.8c-1-1-2.3-1.6-3.8-1.6c-0.4,0-0.9,0.1-1.3,0.2C183.4,53.8,181.7,52.8,179.7,52.8
		L179.7,52.8z"/>
</g>
<g>
	<path fill="#E72A6E" d="M138.1,165.7c-2.6,0-4.8-2.1-4.8-4.8v-5.7l-4,4c-0.9,0.9-2.1,1.4-3.4,1.4c-1.3,0-2.5-0.5-3.4-1.4
		c-0.9-0.9-1.4-2.1-1.4-3.4s0.5-2.5,1.4-3.4l4-4h-5.7c-2.6,0-4.8-2.1-4.8-4.8s2.1-4.8,4.8-4.8h5.7l-4-4c-0.9-0.9-1.4-2.1-1.4-3.4
		s0.5-2.5,1.4-3.4c0.9-0.9,2.1-1.4,3.4-1.4s2.5,0.5,3.4,1.4l4,4v-5.7c0-2.6,2.1-4.8,4.8-4.8s4.8,2.1,4.8,4.8v5.7l4-4
		c0.9-0.9,2.1-1.4,3.4-1.4s2.5,0.5,3.4,1.4c0.9,0.9,1.4,2.1,1.4,3.4s-0.5,2.5-1.4,3.4l-4,4h5.7c2.6,0,4.8,2.1,4.8,4.8
		s-2.1,4.8-4.8,4.8h-5.7l4,4c0.9,0.9,1.4,2.1,1.4,3.4s-0.5,2.5-1.4,3.4c-0.9,0.9-2.1,1.4-3.4,1.4c-1.3,0-2.5-0.5-3.4-1.4l-4-4v5.7
		C142.9,163.6,140.7,165.7,138.1,165.7z"/>
	<path fill="#FFFFFF" d="M138.1,123.9c1.5,0,2.8,1.2,2.8,2.8v10.5l7.4-7.4c0.5-0.5,1.2-0.8,2-0.8c0.7,0,1.4,0.3,2,0.8
		c1.1,1.1,1.1,2.8,0,3.9l-7.4,7.4h10.5c1.5,0,2.8,1.2,2.8,2.8c0,1.5-1.2,2.8-2.8,2.8h-10.5l7.4,7.4c1.1,1.1,1.1,2.8,0,3.9
		c-0.5,0.5-1.2,0.8-2,0.8c-0.7,0-1.4-0.3-2-0.8l-7.4-7.4V161c0,1.5-1.2,2.8-2.8,2.8s-2.8-1.2-2.8-2.8v-10.5l-7.4,7.4
		c-0.5,0.5-1.2,0.8-2,0.8c-0.7,0-1.4-0.3-2-0.8c-1.1-1.1-1.1-2.8,0-3.9l7.4-7.4h-10.5c-1.5,0-2.8-1.2-2.8-2.8c0-1.5,1.2-2.8,2.8-2.8
		h10.5l-7.4-7.4c-1.1-1.1-1.1-2.8,0-3.9c0.5-0.5,1.2-0.8,2-0.8c0.7,0,1.4,0.3,2,0.8l7.4,7.4v-10.5
		C135.3,125.1,136.6,123.9,138.1,123.9 M138.1,119.9c-3.7,0-6.8,3-6.8,6.8v0.8l-0.6-0.6c-1.3-1.3-3-2-4.8-2c-1.8,0-3.5,0.7-4.8,2
		c-1.3,1.3-2,3-2,4.8s0.7,3.5,2,4.8l0.6,0.6h-0.8c-3.7,0-6.8,3-6.8,6.8c0,3.7,3,6.8,6.8,6.8h0.8l-0.6,0.6c-1.3,1.3-2,3-2,4.8
		c0,1.8,0.7,3.5,2,4.8c1.3,1.3,3,2,4.8,2c1.8,0,3.5-0.7,4.8-2l0.6-0.6v0.8c0,3.7,3,6.8,6.8,6.8s6.8-3,6.8-6.8v-0.8l0.6,0.6
		c1.3,1.3,3,2,4.8,2c1.8,0,3.5-0.7,4.8-2c1.3-1.3,2-3,2-4.8c0-1.8-0.7-3.5-2-4.8l-0.6-0.6h0.8c3.7,0,6.8-3,6.8-6.8
		c0-3.7-3-6.8-6.8-6.8h-0.8l0.6-0.6c1.3-1.3,2-3,2-4.8s-0.7-3.5-2-4.8c-1.3-1.3-3-2-4.8-2c-1.8,0-3.5,0.7-4.8,2l-0.6,0.6v-0.8
		C144.9,122.9,141.8,119.9,138.1,119.9L138.1,119.9z"/>
</g>
</svg>
