<?xml version="1.0" encoding="utf-8"?>
<!-- Generator: Adobe Illustrator 26.0.2, SVG Export Plug-In . SVG Version: 6.00 Build 0)  -->
<svg version="1.1" baseProfile="basic" id="Calque_1"
	 xmlns="http://www.w3.org/2000/svg" xmlns:xlink="http://www.w3.org/1999/xlink" x="0px" y="0px" viewBox="0 0 306.9 306.9"
	 xml:space="preserve">
<g>
	<defs>
		<rect id="SVGID_00000031168692927445233790000009112846710283991969_" x="-37.4" y="-447.1" width="309.3" height="308.3"/>
	</defs>
	<clipPath id="SVGID_00000176757855188361971090000002636734528826472099_">
		<use xlink:href="#SVGID_00000031168692927445233790000009112846710283991969_"  overflow="visible"/>
	</clipPath>
	
		<g id="fVGA3Y.tif_00000039129711209895145440000006294983058611259838_" clip-path="url(#SVGID_00000176757855188361971090000002636734528826472099_)">
		
			<image overflow="visible" width="442" height="412" id="Layer_0_00000147193960149720311150000013910200782724072116_" xlink:href="6ECE0588CE32C6A6.png"  transform="matrix(1.4242 0 0 1.4242 -137.1491 -584.5038)">
		</image>
	</g>
</g>
<circle opacity="0.6" fill="#2B2B2B" cx="152.8" cy="220.4" r="4.3"/>
<circle opacity="0.6" fill="#2B2B2B" cx="163.6" cy="228" r="2.6"/>
<circle opacity="0.6" fill="#2B2B2B" cx="152.8" cy="232.7" r="3.7"/>
<path fill="#E6E6E6" d="M248.7,275.4c0-18.6-15.1-33.8-33.8-33.8c-18.6,0-33.8,15.1-33.8,33.8c0,2.4,0.2,4.7,0.7,6.9l0,0l4.6,19.9
	c0.7,3,4.3,4,6.5,1.9l1.7-1.7l8.9-8.8l6.1,11c1.4,2.4,4.7,2.7,6.4,0.5l8.5-10.9l11.1,7.8l5.2,3.7c2.5,1.8,5.9,0.1,6.1-2.9l1.6-25.3
	l0,0C248.7,276.9,248.7,276.1,248.7,275.4z"/>
</svg>
