<svg width="34" height="40" viewBox="0 0 34 40" fill="none" xmlns="http://www.w3.org/2000/svg">
<path fill-rule="evenodd" clip-rule="evenodd" d="M13.9999 11.9192C14.9563 11.6609 15.9621 11.5231 17.0002 11.5231C17.6823 11.5231 18.3505 11.5826 18.9999 11.6967L18.9999 6.59634C18.3444 6.51726 17.677 6.47656 17.0002 6.47656C15.9756 6.47656 14.9728 6.56981 13.9999 6.74829L13.9999 11.9192ZM9.99987 13.9045L9.99987 8.02839C4.37382 10.6635 0.476924 16.3766 0.476924 22.9998C0.476924 32.1254 7.87464 39.5231 17.0002 39.5231C26.1257 39.5231 33.5234 32.1254 33.5234 22.9998C33.5234 15.9907 29.1592 10.0009 22.9999 7.59955L22.9999 13.2143C26.2857 15.2332 28.4769 18.8606 28.4769 22.9998C28.4769 29.3382 23.3386 34.4766 17.0002 34.4766C10.6617 34.4766 5.52344 29.3382 5.52344 22.9998C5.52344 19.2966 7.27738 16.003 9.99987 13.9045Z" fill="#CF9A28"/>
<path fill-rule="evenodd" clip-rule="evenodd" d="M16.5 0C17.8807 0 19 0.909101 19 2.03053V16.9695C19 18.0909 17.8807 19 16.5 19C15.1193 19 14 18.0909 14 16.9695V2.03053C14 0.909101 15.1193 0 16.5 0Z" fill="#CF9A28"/>
</svg>
