<svg width="24" height="24" viewBox="0 0 24 24" fill="none" xmlns="http://www.w3.org/2000/svg">
<path fill-rule="evenodd" clip-rule="evenodd" d="M0.613281 2.49023C0.613281 1.45362 1.45362 0.613281 2.49023 0.613281H21.2598C22.2964 0.613281 23.1367 1.45362 23.1367 2.49023V21.2598C23.1367 22.2964 22.2964 23.1367 21.2598 23.1367H2.49023C1.45362 23.1367 0.613281 22.2964 0.613281 21.2598V2.49023ZM14.5617 8.12072C14.5617 9.60477 13.3587 10.8078 11.8746 10.8078C10.3906 10.8078 9.1875 9.60477 9.1875 8.12072C9.1875 6.63666 10.3906 5.43359 11.8746 5.43359C13.3587 5.43359 14.5617 6.63666 14.5617 8.12072ZM18.7848 12.1484L21.2598 15.2104V21.2598H2.49023L2.49023 13.3543L5.48584 9.46289L13.032 19.2657L18.7848 12.1484Z" fill="#ECB236"/>
</svg>
