<svg width="41" height="33" viewBox="0 0 41 33" fill="none" xmlns="http://www.w3.org/2000/svg">
<path d="M13.7593 33H11.9018C11.8518 32.9877 11.801 32.9791 11.7498 32.974C10.7054 32.9332 9.66522 32.8201 8.63686 32.6356C5.60677 32.1072 2.70925 31.0032 0.104888 29.3847C0.0621667 29.3587 -0.00684519 29.3465 0.000548908 29.2589C4.54381 29.6963 8.64425 28.5829 12.3043 25.8627C12.2706 25.8351 12.2633 25.8237 12.2542 25.8229C12.163 25.8108 12.0726 25.7978 11.9806 25.7921C10.7017 25.7171 9.45864 25.346 8.35177 24.7087C6.55254 23.6781 5.29883 22.193 4.58571 20.2608C4.50355 20.0352 4.52245 20.0125 4.76399 20.0514C5.57559 20.1848 6.40294 20.1963 7.21801 20.0855C7.54342 20.0492 7.86504 19.9852 8.17924 19.894C8.16528 19.8737 8.16035 19.8615 8.15213 19.8583C8.12541 19.8479 8.09795 19.8395 8.06997 19.8331C6.288 19.4095 4.78371 18.5241 3.59326 17.1502C2.27054 15.6294 1.58453 13.862 1.55002 11.851C1.55002 11.6141 1.56481 11.6019 1.77267 11.709C2.59504 12.1328 3.48381 12.4168 4.40168 12.5489C4.68398 12.5954 4.9692 12.6225 5.25529 12.6301C5.24707 12.6009 5.24707 12.5863 5.2405 12.5814C5.20024 12.5489 5.15834 12.5181 5.11726 12.4881C3.92284 11.6374 2.9745 10.493 2.36644 9.16828C1.75838 7.84361 1.51176 6.38484 1.65108 4.93688C1.75342 3.8031 2.09454 2.70297 2.65257 1.70704C2.75115 1.52932 2.76841 1.52932 2.89903 1.68432C3.83454 2.79881 4.8716 3.82617 5.99716 4.75348C8.65838 6.95558 11.7747 8.55647 15.1281 9.44406C16.6935 9.85768 18.297 10.1154 19.9145 10.2134C20.0993 10.2256 20.1199 10.2069 20.0829 10.0284C19.8915 9.1383 19.8546 8.22259 19.9736 7.32032C20.3023 4.90686 21.4632 2.96733 23.4678 1.54717C25.212 0.311231 27.1747 -0.178114 29.3009 0.0572264C31.2241 0.254439 33.0149 1.11674 34.3568 2.49178C34.3987 2.54081 34.4545 2.57647 34.5169 2.59423C34.5793 2.612 34.6457 2.61108 34.7076 2.5916C35.6148 2.40073 36.5052 2.13887 37.3703 1.80848C38.1636 1.50314 38.9326 1.13937 39.6707 0.720235C39.7175 0.694267 39.7726 0.630969 39.8219 0.674791C39.8712 0.718613 39.8137 0.779477 39.7997 0.832225C39.7857 0.884974 39.7635 0.939346 39.743 0.994529C39.1187 2.64506 37.9805 4.05747 36.4921 5.02859C36.437 5.0651 36.3672 5.0862 36.336 5.156C36.3877 5.20469 36.4469 5.17953 36.5003 5.17223C37.662 5.01337 38.8034 4.73373 39.9057 4.33799C40.2721 4.2049 40.6352 4.0645 41 3.92736V3.96144C40.9651 3.99898 40.9322 4.03826 40.9014 4.07911C39.8823 5.56066 38.6242 6.86721 37.1773 7.94681C36.8996 8.15293 36.7985 8.3477 36.8158 8.69827C36.8584 9.78684 36.8084 10.877 36.6662 11.9573C36.3418 14.6449 35.5677 17.2605 34.3757 19.6976C32.8969 22.7448 30.8767 25.392 28.2674 27.5904C26.5041 29.0794 24.5167 30.2879 22.3767 31.1725C19.9001 32.1907 17.2678 32.7904 14.5899 32.9464C14.3081 32.9619 14.0304 32.9408 13.7593 33Z" fill="#3B3B44"/>
</svg>
