<svg width="42" height="42" viewBox="0 0 42 42" fill="none" xmlns="http://www.w3.org/2000/svg">
<path d="M12.5898 27.199L12.4307 27.1763C12.4059 27.0925 12.3879 27.0068 12.377 26.92C12.1972 23.9299 11.9823 20.9417 11.8562 17.9516C11.6888 14.0005 8.93425 10.7747 5.03689 10.0721C4.03878 9.89234 3.8962 10.0163 4.05531 10.9958C5.33652 18.7974 6.62118 26.5984 7.90928 34.3986C8.04774 35.2376 8.17172 35.3285 9.02724 35.2355C10.8585 35.0691 12.5974 34.3556 14.0178 33.1876C15.8073 31.7018 16.9108 29.7573 17.7374 27.6309C18.7045 25.1305 19.6592 22.6239 20.6305 20.1234C20.7111 19.9168 20.7131 19.6295 21.0066 19.5427C21.1289 19.7108 21.1948 19.9134 21.1946 20.1214C21.519 22.4193 21.8373 24.7172 22.1638 27.013C22.5213 29.5341 22.8953 32.0511 23.2445 34.5722C23.3148 35.0702 23.5462 35.3016 24.0463 35.2541C24.2716 35.2334 24.4968 35.2231 24.72 35.1942C28.6463 34.6796 31.219 32.3549 32.7007 28.8749C35.2693 22.8429 37.6602 16.7365 40.14 10.6652C40.3632 10.1176 40.1669 9.97913 39.6482 10.0039C38.0126 10.0771 36.4355 10.6337 35.1164 11.6034C32.9983 13.1284 31.7625 15.2838 30.9628 17.7015C30.0081 20.5946 29.1174 23.498 28.1896 26.3952C28.1131 26.639 28.109 26.9324 27.8528 27.0998C27.6275 26.9676 27.675 26.7444 27.6461 26.5522C26.9683 21.3034 26.2953 16.0539 25.6272 10.8037C25.5528 10.2188 25.3193 9.96467 24.7159 10.0039C23.4057 10.0809 22.1343 10.4775 21.0128 11.1591C19.1343 12.3039 17.8469 13.9736 16.9955 15.9554C16.0429 18.1685 15.2101 20.4334 14.3319 22.6776C13.7491 24.182 13.1726 25.6905 12.5898 27.199Z" fill="#2A4BB3"/>
</svg>
